<?xml version="1.0" standalone="no"?>
<!DOCTYPE svg PUBLIC "-//W3C//DTD SVG 20010904//EN"
 "http://www.w3.org/TR/2001/REC-SVG-20010904/DTD/svg10.dtd">
<svg version="1.0" xmlns="http://www.w3.org/2000/svg"
 width="1141.000000pt" height="766.000000pt" viewBox="0 0 1141.000000 766.000000"
 preserveAspectRatio="xMidYMid meet">
<metadata>
Created by potrace 1.16, written by Peter Selinger 2001-2019
</metadata>
<g transform="translate(0.000000,766.000000) scale(0.100000,-0.100000)"
fill="#000000" stroke="none">
<path d="M5489 7145 l-202 -315 -329 0 -328 0 0 -490 0 -490 -1505 0 -1505 0
0 -2150 0 -2150 1505 0 1505 0 0 -575 0 -575 1090 0 1090 0 0 575 0 575 1500
0 1500 0 0 2150 0 2150 -1500 0 -1500 0 0 490 0 490 -343 0 -344 0 -203 305
c-112 168 -209 310 -216 316 -9 7 -62 -68 -215 -306z m403 -35 l187 -280 -374
0 -374 0 180 280 c100 154 184 280 187 280 4 -1 91 -127 194 -280z m-665 -372
c-410 -641 -541 -845 -548 -853 -5 -5 -9 189 -9 448 l0 457 295 0 296 0 -34
-52z m1188 -409 c171 -253 312 -465 313 -470 2 -5 -405 -9 -1012 -9 l-1015 0
302 470 302 470 400 0 401 0 309 -461z m355 4 l-1 -458 -22 30 c-12 16 -151
222 -309 457 l-286 428 309 0 309 0 0 -457z m-2140 -2633 l0 -2110 -1485 0
-1485 0 0 2110 0 2110 1485 0 1485 0 0 -2110z m2140 0 l0 -2110 -1050 0 -1050
0 0 2110 0 2110 1050 0 1050 0 0 -2110z m3000 0 l0 -2110 -1480 0 -1480 0 0
2110 0 2110 1480 0 1480 0 0 -2110z m-3000 -2705 l0 -555 -1050 0 -1050 0 0
555 0 555 1050 0 1050 0 0 -555z"/>
</g>
</svg>
