<?xml version="1.0" standalone="no"?>
<!DOCTYPE svg PUBLIC "-//W3C//DTD SVG 20010904//EN"
 "http://www.w3.org/TR/2001/REC-SVG-20010904/DTD/svg10.dtd">
<svg version="1.0" xmlns="http://www.w3.org/2000/svg"
 width="1263.000000pt" height="1519.000000pt" viewBox="0 0 1263.000000 1519.000000"
 preserveAspectRatio="xMidYMid meet">
<metadata>
Created by potrace 1.16, written by Peter Selinger 2001-2019
</metadata>
<g transform="translate(0.000000,1519.000000) scale(0.100000,-0.100000)"
fill="#000000" stroke="none">
<path d="M3731 14899 l-34 -10 6 -69 6 -68 -37 -7 c-20 -3 -129 -29 -242 -56
-446 -109 -937 -273 -1376 -459 -190 -81 -452 -170 -564 -194 -41 -8 -176 -20
-300 -26 -494 -24 -501 -25 -568 -55 -87 -39 -133 -92 -166 -191 -31 -94 -70
-277 -86 -407 l-12 -93 -74 -94 c-40 -52 -88 -121 -105 -154 l-32 -59 6 -141
c4 -78 11 -166 16 -196 5 -30 12 -75 15 -100 10 -92 26 -150 51 -189 14 -23
25 -48 25 -56 0 -8 15 -24 33 -35 l32 -20 -39 0 -38 0 7 -37 c9 -49 27 -82 62
-116 l29 -27 189 -2 c235 -2 235 -2 235 -40 0 -37 38 -75 81 -82 47 -6 430
-25 685 -33 185 -5 217 -4 260 11 45 16 56 16 134 3 46 -9 88 -13 93 -10 4 2
19 22 33 44 24 39 119 109 147 109 10 0 18 -19 25 -58 15 -87 65 -208 121
-293 167 -254 457 -402 756 -386 219 12 397 89 553 241 89 86 155 183 199 291
25 62 36 79 50 77 29 -6 73 -54 73 -79 l0 -23 298 0 c163 0 1384 -5 2712 -11
1756 -8 2423 -7 2444 1 28 10 29 12 24 68 l-5 57 43 33 c67 50 71 50 84 0 86
-340 344 -582 685 -644 302 -54 611 62 810 303 58 70 125 190 146 261 13 45
21 48 81 32 36 -10 36 -11 26 -41 -9 -27 -8 -34 11 -52 21 -21 29 -22 224 -20
235 2 366 21 536 79 126 43 153 58 175 94 28 49 19 155 -15 165 -16 6 -19 17
-19 81 0 61 4 80 21 104 39 52 37 153 -6 395 -39 220 -139 439 -261 575 -118
131 -659 272 -1524 400 -178 26 -494 69 -595 80 -316 34 -494 51 -585 56 -281
13 -256 7 -388 91 -396 255 -597 365 -952 518 -534 230 -1020 357 -1645 429
-258 30 -477 39 -905 40 -552 0 -835 -15 -1205 -65 -67 -9 -86 -8 -117 5 -21
9 -62 16 -92 16 -31 0 -79 9 -108 19 -73 27 -107 31 -147 20z m144 -37 c37
-19 38 -20 15 -24 -14 -2 16 -2 66 0 50 3 99 0 108 -5 13 -7 -25 -17 -141 -37
-87 -15 -168 -30 -180 -33 -18 -4 -23 -1 -23 16 0 15 7 21 23 22 12 0 31 5 42
10 14 6 8 7 -22 3 l-43 -6 0 35 c0 20 6 38 13 41 22 10 101 -2 142 -22z m2105
-2 c627 -52 944 -108 1430 -255 30 -9 64 -25 75 -35 22 -20 106 -63 145 -75
14 -4 117 -48 230 -98 323 -141 710 -339 710 -361 0 -6 -17 -31 -39 -56 l-39
-45 -43 40 c-332 304 -886 553 -1544 694 -55 11 -120 25 -145 31 -77 17 -352
59 -487 74 -276 32 -518 46 -810 46 -637 0 -1179 -81 -1698 -254 -433 -145
-752 -313 -1085 -575 -24 -19 -30 -19 -245 -6 -533 34 -723 45 -759 45 -22 0
-36 3 -33 7 4 3 59 23 123 45 64 21 211 78 328 127 349 147 607 240 946 340
58 17 119 35 135 41 38 12 337 89 390 100 299 63 442 89 645 120 161 24 558
52 895 64 172 6 747 -3 875 -14z m70 -80 c1288 -120 2216 -503 2617 -1078 20
-28 34 -54 31 -57 -3 -3 -25 25 -49 62 -24 37 -93 118 -154 179 -364 365 -991
643 -1760 779 -273 48 -291 51 -620 87 -273 30 -931 33 -1150 5 -367 -46 -565
-82 -827 -148 -548 -139 -1004 -339 -1265 -558 -65 -53 -76 -70 -45 -69 34 1
537 -24 550 -28 6 -2 12 -9 12 -15 0 -9 -40 -10 -160 -5 -88 4 -168 9 -177 10
-10 2 -96 7 -190 11 -95 4 -173 11 -173 15 0 4 35 34 78 67 409 316 1018 567
1642 676 411 72 565 84 1045 86 313 0 431 -3 595 -19z m-326 -19 l90 -6 12
-60 c12 -59 30 -156 59 -310 8 -44 33 -177 55 -297 22 -119 40 -225 40 -236 0
-20 -4 -21 -82 -15 -46 3 -84 6 -86 8 -2 1 -7 31 -12 66 l-9 64 4 -67 4 -67
-67 5 c-82 5 -404 23 -642 34 -417 20 -1170 60 -1220 64 -30 3 -116 8 -190 11
-74 3 -158 8 -187 11 l-52 5 36 62 c81 140 170 287 220 364 58 88 43 79 201
129 16 5 13 0 -55 -98 -29 -43 -53 -83 -52 -90 0 -9 3 -8 6 2 5 12 107 161
133 192 9 11 379 103 530 131 207 39 317 55 535 77 281 28 537 35 729 21z
m234 -17 c21 -3 32 -11 33 -22 1 -16 2 -15 6 1 6 21 19 21 204 2 561 -58 1081
-180 1483 -347 155 -64 356 -165 356 -179 0 -5 4 -8 9 -5 11 7 197 -114 295
-192 97 -77 213 -195 271 -276 26 -37 45 -69 43 -71 -2 -3 -87 -1 -189 3 -101
5 -177 11 -169 14 8 3 37 14 64 23 27 10 57 26 67 36 25 25 25 83 0 108 -25
25 -81 54 -89 47 -3 -4 -24 11 -46 32 -56 53 -142 103 -188 110 -30 4 -38 9
-39 26 0 21 0 20 -9 -1 -8 -19 -17 -23 -57 -23 -60 0 -111 -25 -140 -69 -19
-28 -23 -48 -23 -107 0 -40 4 -84 10 -98 l10 -26 -68 5 c-81 7 -392 24 -637
35 -346 16 -810 40 -861 46 -40 4 -54 10 -62 27 l-11 22 0 -23 c-1 -23 -3 -23
-73 -18 -40 2 -85 5 -100 5 -24 1 -28 6 -38 54 -11 55 -160 861 -160 869 0 4
55 0 108 -8z m1744 -243 c401 -153 757 -335 1128 -575 118 -77 137 -92 98 -77
-55 21 -115 55 -203 116 -209 145 -551 319 -993 506 -159 67 -204 88 -190 89
4 0 76 -26 160 -59z m-4105 -202 c-52 -85 -108 -179 -124 -209 -59 -105 -68
-120 -75 -120 -13 0 -9 16 18 64 14 25 23 46 21 46 -3 0 -20 -25 -38 -56 l-32
-56 -61 6 c-33 3 -128 9 -209 12 -81 4 -146 10 -145 15 10 29 263 207 423 297
117 67 134 79 59 43 -122 -59 -336 -200 -451 -298 -58 -50 -65 -52 -99 -45
l-37 8 54 45 c73 62 153 114 284 186 114 63 294 144 330 148 11 1 44 14 73 29
30 15 55 26 57 24 2 -2 -14 -30 -36 -63 -48 -72 -61 -95 -55 -95 3 0 22 26 42
58 116 183 117 152 1 -39z m5128 -354 c50 -34 110 -73 135 -85 54 -28 152 -62
158 -55 2 2 21 -3 41 -11 103 -44 295 -90 526 -124 77 -12 167 -25 200 -30
122 -18 482 -89 695 -136 63 -14 125 -28 138 -30 92 -18 561 -133 627 -154 25
-8 33 -19 43 -53 20 -74 165 -268 255 -342 20 -16 62 -51 94 -77 31 -27 61
-48 67 -47 6 0 2 6 -8 12 -11 7 -33 25 -50 40 l-31 29 124 -6 c68 -3 159 -6
201 -6 85 0 103 -9 224 -107 80 -65 81 -73 9 -75 l-58 -2 57 -3 c65 -4 61 3
78 -138 14 -108 6 -186 -20 -210 -16 -14 -40 -17 -161 -16 -134 2 -143 0 -165
-20 -20 -19 -24 -33 -24 -80 0 -94 -9 -89 164 -89 133 0 155 -2 184 -20 29
-18 32 -25 32 -66 0 -38 -5 -51 -30 -74 -16 -15 -40 -30 -52 -33 -13 -3 -48
-15 -78 -26 -50 -18 -79 -20 -301 -21 -135 0 -287 3 -337 6 l-90 7 5 146 c14
378 -83 654 -305 863 -116 109 -241 173 -431 221 -127 32 -391 31 -510 -1
-164 -44 -284 -108 -387 -205 -194 -181 -285 -391 -316 -731 l-12 -128 -220 7
c-122 4 -261 8 -309 10 -48 2 -90 4 -92 6 -2 2 4 47 13 99 l17 95 35 6 35 6
-32 2 c-39 1 -38 -7 -17 148 18 137 21 537 4 622 -5 29 -10 56 -10 58 0 2 44
2 98 -1 l97 -4 -96 10 -96 11 -12 76 c-11 64 -37 172 -67 279 l-7 24 94 -6
c69 -4 82 -3 49 4 -25 5 -68 9 -96 9 -51 1 -52 2 -67 40 -9 21 -14 47 -11 57
5 20 -105 175 -178 251 l-41 42 42 55 c50 65 37 67 176 -29z m-6975 65 c80 -6
228 -15 330 -20 231 -13 593 -38 640 -45 19 -3 172 -12 339 -20 168 -8 306
-17 308 -18 2 -2 -2 -18 -8 -35 -9 -26 -17 -32 -42 -34 l-32 -1 30 -4 c28 -4
31 -7 27 -37 -3 -25 10 -60 52 -144 31 -62 56 -114 56 -117 0 -3 -35 -6 -77
-7 l-78 -1 82 -6 c45 -4 84 -9 86 -11 4 -4 75 -139 85 -163 2 -4 -16 2 -41 12
-136 58 -371 89 -562 72 -94 -8 -88 -8 98 -10 221 -1 299 -13 436 -64 74 -29
86 -36 105 -72 101 -189 291 -503 413 -682 99 -146 248 -354 280 -390 l28 -32
385 -11 c212 -6 534 -15 715 -20 833 -24 1229 -35 2005 -55 113 -3 338 -10
500 -15 316 -11 1384 -40 1463 -40 l47 0 0 -55 0 -55 -107 0 c-60 0 -304 5
-543 10 -239 5 -658 14 -930 20 -272 5 -551 12 -620 15 -69 3 -386 10 -705 15
-319 5 -629 12 -690 15 -60 3 -351 10 -645 15 -294 6 -673 13 -841 16 l-307 7
-11 91 c-48 367 -177 637 -390 808 -110 88 -239 148 -411 190 -83 20 -327 17
-418 -5 -139 -33 -261 -89 -347 -157 -21 -16 -50 -31 -64 -31 -18 -1 -20 -3
-8 -6 15 -4 9 -14 -35 -61 -139 -147 -241 -363 -294 -622 -9 -47 -18 -86 -19
-87 0 -1 -98 7 -215 17 -118 11 -264 25 -325 30 -60 6 -186 17 -280 26 -93 8
-215 19 -270 24 -193 16 -560 51 -585 54 -14 3 -37 5 -53 5 -34 1 -62 43 -77
116 -19 95 -50 360 -50 438 0 67 2 77 18 77 14 0 14 2 3 9 -12 8 -8 19 20 66
19 31 61 91 95 133 l61 76 64 -3 c35 -1 66 -4 68 -6 3 -3 -51 -78 -102 -142
-5 -7 -7 -13 -4 -13 4 0 33 36 67 80 l61 80 72 -6 c40 -3 141 -9 226 -12 l154
-7 32 -95 c26 -79 37 -98 62 -113 39 -22 187 -37 363 -35 l135 1 -185 8 c-328
14 -325 13 -366 145 -14 47 -27 105 -30 129 -7 79 -78 302 -185 590 -51 136
-66 121 123 129 89 4 213 11 273 17 61 5 144 9 185 9 41 0 95 7 120 14 55 18
60 18 240 6z m6434 -50 c32 -18 60 -39 63 -46 3 -8 10 -14 15 -14 15 0 47 -43
48 -62 0 -10 -8 -19 -17 -19 -16 -1 -16 -2 0 -6 40 -10 -9 -103 -59 -114 -41
-9 -149 -10 -224 -2 -57 6 -63 9 -77 37 -13 29 -14 30 -8 4 4 -21 2 -26 -9
-22 -46 18 -61 185 -20 239 12 16 17 17 23 7 6 -10 9 -9 13 6 7 25 34 31 124
28 59 -2 81 -8 128 -36z m-7423 -90 c82 -204 210 -612 196 -626 -3 -3 -87 -1
-188 5 -100 6 -197 11 -215 11 -32 0 -33 2 -44 58 -13 63 -30 82 -72 82 -28 0
-28 1 -22 43 9 59 42 213 58 268 40 133 78 182 175 220 70 28 78 24 112 -61z
m2871 70 c68 -5 184 -12 258 -15 74 -3 259 -12 410 -20 151 -9 361 -20 465
-25 192 -9 880 -46 1010 -54 39 -3 103 -6 143 -8 53 -2 72 -6 72 -16 0 -15 4
-15 -415 8 -93 5 -217 12 -275 15 -114 6 -357 19 -650 36 -102 5 -273 14 -380
19 -107 5 -321 16 -475 24 -154 9 -301 16 -327 16 -36 0 -48 4 -48 15 0 18 36
19 212 5z m21 -46 c45 -3 170 -9 277 -14 107 -5 364 -18 570 -29 206 -11 422
-23 480 -26 58 -3 184 -10 280 -15 96 -6 265 -15 375 -20 202 -11 359 -21 361
-23 1 -1 4 -14 8 -29 l6 -27 -107 4 c-128 5 -117 -1 18 -10 l95 -7 22 -121
c13 -67 25 -146 29 -176 l6 -54 -46 5 c-26 3 -47 2 -47 -3 0 -5 22 -9 48 -9
l49 0 16 -152 c29 -273 37 -400 37 -590 l0 -188 -42 -2 -43 -1 43 -4 42 -4 -2
-67 -3 -67 -70 -6 -70 -5 68 -2 68 -2 -3 -42 -3 -43 -115 3 c-234 6 -1282 34
-1480 41 l-205 6 -83 110 c-183 242 -387 562 -582 909 l-34 60 40 -24 c196
-117 370 -315 506 -575 32 -60 58 -107 58 -102 0 14 -82 170 -132 251 -106
168 -242 311 -398 416 -88 59 -91 63 -135 150 -25 49 -45 92 -45 95 0 3 19 6
43 7 l42 1 -50 6 -50 6 -64 127 c-74 148 -77 177 -13 180 37 1 37 1 5 5 -35 5
-41 19 -23 54 12 21 -1 21 253 3z m2902 -109 c165 -8 374 -19 465 -25 192 -12
248 -14 590 -31 188 -9 259 -15 270 -25 12 -12 5 -14 -45 -14 -33 0 -125 5
-205 10 -179 12 -1030 57 -1315 70 -228 10 -281 16 -291 32 -5 7 30 9 112 4
65 -3 254 -13 419 -21z m2800 5 c61 -5 142 -12 180 -16 77 -7 316 -46 580 -94
94 -17 193 -35 220 -40 92 -15 320 -62 621 -125 250 -53 598 -147 754 -204
183 -67 255 -129 340 -293 38 -71 80 -178 80 -200 0 -5 -18 6 -41 24 -28 22
-51 55 -73 104 -38 81 -120 207 -166 253 -88 87 -202 122 -420 128 -146 4
-166 7 -350 54 -107 27 -233 58 -280 69 -47 10 -148 33 -225 50 -77 17 -158
35 -180 40 -149 35 -520 104 -735 136 -213 31 -396 68 -490 98 l-75 24 75 1
c41 0 125 -4 185 -9z m-3145 -29 c63 -6 176 -12 250 -15 141 -6 389 -19 695
-36 484 -27 1404 -75 1533 -80 7 0 10 -5 7 -10 -4 -6 9 -56 29 -113 19 -56 44
-149 56 -207 11 -58 23 -115 25 -127 5 -21 2 -23 -42 -25 l-48 -2 46 -3 c44
-4 47 -6 53 -36 3 -18 9 -122 12 -232 6 -185 -4 -407 -25 -530 -6 -39 -8 -40
-51 -46 l-45 -6 43 -1 c39 -2 43 -4 40 -24 -3 -21 -10 -24 -73 -29 l-70 -5 68
-2 c60 -2 67 -4 67 -22 0 -20 -5 -21 -161 -19 -88 0 -163 -2 -166 -5 -4 -3 67
-6 156 -6 l163 0 -7 -42 c-4 -24 -8 -44 -10 -46 -3 -3 -1313 32 -2135 58 -168
5 -342 9 -387 10 l-83 0 0 29 c0 62 -6 60 203 55 106 -3 212 -6 236 -8 28 -3
39 -1 30 5 -8 5 -50 9 -94 9 -44 0 -144 3 -222 7 -141 6 -143 6 -143 30 0 22
4 23 68 25 l67 2 -67 3 -68 4 0 39 0 40 63 2 62 2 -61 3 -61 4 5 72 c5 87 -14
426 -35 632 -9 83 -18 170 -20 195 -2 25 -12 95 -23 155 -41 231 -40 229 -27
237 8 5 7 8 -4 8 -11 0 -18 11 -21 30 -5 35 -8 35 172 21z m3961 -61 c30 -5
108 -16 174 -25 66 -8 147 -20 180 -25 33 -6 128 -21 210 -35 128 -20 315 -54
470 -85 255 -50 541 -133 660 -192 84 -41 91 -49 70 -81 l-17 -26 -61 34
c-110 59 -390 149 -657 210 -202 46 -310 71 -395 89 -103 23 -351 72 -420 85
-95 16 -226 40 -275 50 -63 12 -8 14 61 1z m1485 -430 c120 -35 165 -72 261
-215 38 -56 83 -138 83 -149 0 -3 -84 -3 -187 1 -131 4 -197 10 -219 20 -63
28 -254 270 -279 352 l-7 24 141 -7 c88 -5 166 -15 207 -26z m447 -197 c39
-75 107 -266 107 -302 l0 -22 -30 23 c-16 12 -30 27 -30 34 0 25 -40 135 -75
205 -40 79 -71 124 -119 176 l-30 33 24 25 23 25 47 -64 c25 -35 63 -95 83
-133z m-1471 27 c145 -31 291 -101 396 -189 101 -86 205 -241 252 -377 51
-145 62 -220 63 -416 1 -103 -1 -189 -3 -192 -3 -2 -27 1 -53 7 -35 8 -46 14
-42 25 16 42 25 205 16 285 -77 678 -854 1000 -1388 576 -203 -162 -313 -399
-313 -674 l0 -121 -50 -37 c-27 -20 -53 -37 -56 -37 -11 0 4 288 20 379 76
420 305 685 671 772 126 30 341 29 487 -1z m-7477 5 c431 -65 705 -340 806
-810 22 -101 46 -372 36 -399 -6 -15 -10 -15 -40 8 -19 14 -40 26 -46 26 -10
0 -11 12 -7 43 32 236 11 390 -77 566 -197 394 -660 572 -1072 412 -217 -83
-408 -277 -491 -496 -32 -85 -54 -214 -54 -315 l0 -76 -33 -12 c-18 -7 -53
-29 -77 -49 l-43 -37 7 98 c26 376 186 717 413 881 198 143 429 197 678 160z
m45 -139 c209 -38 393 -148 516 -309 233 -306 226 -719 -16 -1020 -80 -100
-153 -157 -275 -217 -136 -66 -211 -83 -365 -82 -147 0 -240 21 -356 79 -492
247 -615 884 -249 1291 186 206 475 306 745 258z m7345 -1 c112 -20 149 -32
235 -75 187 -94 342 -268 406 -457 46 -135 59 -329 29 -455 -72 -310 -309
-550 -615 -623 -102 -25 -280 -25 -380 0 -567 138 -814 803 -475 1280 179 252
501 385 800 330z m-10060 -680 c88 -9 210 -20 270 -25 102 -9 547 -49 936 -85
91 -8 206 -19 255 -23 l89 -7 -3 -100 c-3 -63 -9 -105 -17 -113 -13 -14 -59
-9 -510 58 -77 12 -169 25 -205 30 -36 4 -146 20 -245 35 -99 14 -268 39 -376
54 -107 16 -209 36 -226 44 -17 9 -49 37 -71 62 -22 25 -46 45 -54 45 -15 0
-38 19 -38 32 0 11 10 10 195 -7z m11565 -14 c15 -28 12 -73 -6 -99 -8 -12
-12 -22 -8 -22 11 0 33 34 34 53 0 14 10 17 70 17 l70 0 0 -40 0 -40 -88 0
c-66 0 -94 4 -112 17 -24 16 -24 16 -11 -1 13 -16 11 -17 -40 -14 l-54 3 -3
38 -3 37 40 0 c33 0 40 -4 44 -22 2 -13 5 -3 6 23 2 64 37 93 61 50z m-11656
-115 c54 -41 82 -50 201 -68 l90 -13 -160 -3 c-87 -1 -165 0 -172 2 -16 7 -63
81 -63 101 0 28 57 18 104 -19z m626 -130 c25 -3 124 -17 220 -31 96 -14 256
-37 355 -51 99 -14 182 -27 184 -30 2 -2 -9 -8 -24 -14 -21 -8 -72 -8 -178 0
-82 5 -210 10 -285 11 -75 0 -213 6 -306 13 -186 14 -196 18 -196 81 l0 32 93
-2 c50 -2 112 -6 137 -9z m3825 -16 c143 -5 402 -11 575 -14 388 -7 673 -14
1165 -26 397 -10 579 -14 1445 -30 289 -5 586 -12 660 -15 74 -2 268 -8 430
-11 196 -5 297 -11 302 -18 14 -21 8 -64 -9 -71 -24 -9 -5382 18 -5387 27 -1
2 0 40 2 86 l4 83 276 -2 c152 -1 394 -5 537 -9z m7102 -145 c10 -7 -237 -35
-352 -40 -172 -7 -229 1 -233 33 l-4 23 294 -7 c161 -3 294 -8 295 -9z"/>
<path d="M2355 13751 c-33 -15 -95 -76 -95 -95 0 -2 -5 -17 -11 -33 -22 -53
-1 -142 44 -191 64 -70 189 -83 262 -28 45 34 73 79 81 126 l6 36 96 -4 c54
-2 95 -2 92 1 -3 3 -44 7 -93 9 -48 3 -89 7 -90 9 -2 2 -9 23 -15 46 -34 116
-165 175 -277 124z m164 -19 c44 -22 89 -77 97 -120 l7 -32 -59 -2 -59 -2 59
-3 58 -4 -5 -36 c-9 -51 -49 -107 -94 -128 -53 -26 -131 -24 -177 4 -46 29
-86 96 -86 144 l0 37 123 -4 122 -4 -122 10 c-68 6 -123 15 -123 20 0 34 65
109 110 127 40 16 112 13 149 -7z"/>
<path d="M3836 13725 c-4 -12 -26 -15 -105 -15 -81 0 -103 -3 -122 -18 -27
-23 -21 -48 16 -62 15 -6 63 -10 107 -10 75 0 83 -2 115 -30 18 -16 41 -30 51
-30 9 0 2 8 -17 18 -67 33 -52 42 73 42 64 0 116 -3 116 -7 -1 -18 -19 -34
-46 -43 -26 -7 -26 -8 -6 -9 14 -1 35 11 52 29 16 17 38 30 52 30 13 0 33 6
44 14 15 12 17 18 8 33 -6 10 -22 19 -35 20 -24 1 -24 1 -1 -4 27 -5 41 -32
22 -43 -7 -4 -99 -8 -206 -9 l-194 -2 0 36 0 35 53 1 c28 0 47 3 40 5 -7 3 -9
12 -6 20 3 8 3 14 0 14 -3 0 -7 -7 -11 -15z"/>
<path d="M2895 12751 c-103 -29 -184 -79 -270 -166 -130 -129 -187 -271 -181
-452 11 -333 284 -593 623 -593 162 0 304 55 418 161 81 76 128 148 167 252
28 74 31 93 31 197 0 187 -48 304 -178 436 -87 89 -173 140 -282 168 -82 22
-249 20 -328 -3z m338 -18 c189 -55 350 -212 413 -403 14 -41 18 -85 18 -175
0 -103 -4 -130 -26 -192 -67 -188 -220 -332 -410 -387 -75 -21 -255 -22 -329
0 -146 43 -291 157 -362 285 -95 171 -100 395 -13 567 82 161 265 294 444 322
72 11 198 3 265 -17z"/>
<path d="M2941 12733 c-19 -4 -21 -7 -10 -15 10 -6 5 -7 -16 -3 -38 7 -147
-44 -221 -103 -51 -40 -151 -159 -142 -168 3 -2 17 14 32 37 15 22 30 38 33
35 3 -2 -5 -19 -17 -35 -23 -34 -70 -143 -70 -163 0 -7 14 20 31 61 16 40 39
87 51 104 l22 31 14 -33 c12 -31 11 -38 -12 -88 -14 -29 -26 -58 -26 -64 0
-13 -68 -42 -80 -34 -6 4 -10 -1 -10 -9 0 -16 46 -34 57 -22 4 3 -1 6 -10 6
-9 0 -17 4 -17 9 0 13 45 22 67 14 15 -5 16 -4 7 8 -15 18 31 129 53 129 9 0
45 -29 81 -64 59 -58 65 -66 52 -81 -14 -17 -35 -17 -140 0 -30 5 -28 3 10
-10 66 -22 127 -20 140 5 7 14 8 26 1 39 -13 24 -99 100 -128 114 -21 9 -49
65 -38 76 14 13 205 -197 205 -225 0 -8 -17 -22 -37 -31 -37 -15 -116 -14
-198 3 -16 4 -28 4 -25 1 3 -3 39 -13 79 -21 84 -18 132 -43 110 -57 -8 -5
-68 -9 -134 -10 l-120 -2 101 -8 c99 -7 166 -20 192 -38 20 -12 -8 -62 -54
-98 -79 -61 -80 -64 -24 -38 60 27 90 32 90 14 0 -16 -72 -84 -152 -145 l-68
-51 45 -44 c51 -50 162 -121 184 -117 8 2 26 30 40 63 13 33 34 84 47 113 13
29 19 50 14 47 -6 -4 -10 16 -10 48 0 70 -14 84 -65 62 -47 -19 -48 -19 -33 4
29 47 93 35 119 -23 13 -28 19 -35 19 -20 0 12 -10 34 -22 49 -12 15 -18 26
-12 23 73 -35 92 -40 136 -36 140 14 213 170 134 288 -65 99 -222 107 -295 14
l-21 -27 0 29 c0 16 -3 39 -6 51 -6 20 -3 22 32 17 41 -4 37 0 -7 10 -14 3
-31 17 -37 31 -16 36 -15 41 6 22 27 -24 86 -47 101 -38 7 5 15 27 18 50 5 39
7 40 20 22 12 -18 12 -25 -2 -51 -9 -17 -26 -35 -38 -40 -14 -6 -16 -9 -6 -9
17 -1 53 34 62 62 6 16 11 13 38 -18 38 -43 67 -52 107 -31 39 20 40 20 45 -6
4 -20 4 -20 6 -3 0 11 11 26 22 34 20 12 21 11 14 -11 -4 -12 -8 -41 -9 -63
l-1 -40 45 -5 c44 -5 45 -5 23 -21 -13 -9 -20 -19 -17 -22 4 -4 -7 -22 -25
-42 -36 -42 -38 -59 -11 -100 27 -40 25 -45 -14 -45 -47 0 -82 -31 -90 -79
l-6 -40 -36 24 c-46 32 -74 31 -108 0 -15 -14 -31 -25 -35 -25 -5 0 -14 -6
-20 -14 -10 -12 -8 -13 10 -9 22 6 22 5 17 -68 l-6 -74 17 55 c23 72 48 120
64 120 15 0 56 -41 81 -81 9 -14 30 -62 46 -105 16 -43 29 -74 30 -67 0 6 -11
42 -25 80 -74 205 -18 210 83 6 46 -92 62 -111 62 -74 0 11 2 28 5 38 3 10 -1
5 -8 -10 -13 -28 -14 -28 -67 84 -36 77 -53 125 -54 155 0 24 -5 44 -10 44 -5
0 -6 -24 -2 -52 l7 -53 -20 20 c-18 18 -19 25 -10 58 5 20 18 41 29 47 26 14
83 13 98 -2 18 -18 14 -27 -10 -22 -13 2 -7 -2 12 -10 115 -45 200 -99 200
-128 0 -12 -31 -51 -77 -97 -42 -42 -76 -80 -75 -84 1 -4 -26 -21 -60 -38 -35
-16 -52 -27 -38 -23 55 14 158 81 216 140 57 58 145 202 144 236 -1 7 -16 -18
-34 -57 -35 -75 -101 -167 -135 -191 -35 -25 -24 -5 29 53 28 31 50 62 48 71
-2 8 -43 38 -91 67 -88 53 -137 91 -137 107 0 16 66 7 124 -17 33 -13 61 -23
63 -22 1 2 -33 21 -77 42 -44 22 -91 50 -103 63 l-22 24 35 29 c19 16 30 29
25 29 -12 0 -65 -48 -65 -58 0 -12 13 -26 44 -50 l29 -22 -27 0 c-32 0 -67 50
-58 83 9 40 43 67 81 67 27 0 32 -3 21 -10 -21 -13 -2 -11 40 5 l35 13 -57 1
c-111 2 -75 36 96 92 93 30 111 39 109 55 -2 11 3 7 12 -11 22 -46 18 -13 -5
39 -11 26 -25 45 -31 44 -6 -2 -14 3 -17 11 -3 10 0 11 9 5 17 -10 -11 35 -58
94 -45 56 -138 126 -154 116 -7 -4 -9 -3 -6 3 8 12 -69 49 -143 68 -52 14
-213 18 -269 8z m181 -10 c-18 -3 -35 -10 -37 -16 -9 -31 -14 -251 -5 -237 8
13 10 12 10 -3 0 -28 39 -97 54 -97 8 0 28 12 45 26 30 25 31 25 31 5 0 -20
-44 -51 -73 -51 -23 0 -77 55 -78 81 0 13 -3 18 -6 12 -18 -46 -48 38 -66 180
l-13 107 86 -2 c47 0 70 -3 52 -5z m-174 -57 c-13 -24 -116 -86 -145 -86 -20
0 9 -48 71 -117 39 -43 54 -53 75 -51 24 3 26 8 29 52 2 27 -4 80 -13 117 -14
55 -14 71 -4 91 l12 23 9 -30 c15 -55 22 -249 9 -272 -10 -20 -15 -21 -44 -11
-31 11 -197 169 -197 188 0 6 8 10 18 11 12 0 10 3 -8 10 -24 10 -24 10 23 41
54 35 170 80 175 68 2 -5 -3 -20 -10 -34z m-114 5 c-75 -41 -115 -71 -108 -82
3 -5 10 -7 15 -4 5 3 6 0 4 -7 -3 -8 10 -32 28 -53 45 -53 107 -147 107 -161
0 -7 -10 -10 -22 -8 l-23 5 23 -12 c25 -14 37 -47 28 -82 -8 -33 -65 -62 -102
-52 -29 8 -28 8 17 20 77 20 83 30 52 88 -9 18 -17 35 -18 38 0 3 -18 20 -40
39 -22 19 -63 56 -92 83 -34 33 -57 48 -67 44 -29 -11 -1 26 49 67 47 39 167
106 188 106 7 0 -11 -13 -39 -29z m287 -45 c1 -23 4 -31 6 -18 2 12 11 22 19
22 23 0 108 -22 117 -30 19 -17 -79 -170 -108 -170 -7 0 -18 12 -23 28 -9 23
-11 24 -11 6 -1 -28 23 -47 48 -39 21 6 83 93 106 150 14 32 50 63 62 51 8 -8
-100 -166 -143 -209 -21 -20 -43 -36 -48 -34 -6 2 -20 21 -31 43 -27 54 -37
276 -11 255 9 -8 17 -30 17 -55z m312 -25 c52 -43 116 -116 118 -134 2 -23 5
-32 23 -70 12 -28 14 -42 6 -52 -15 -18 -188 -65 -251 -68 -49 -2 -54 0 -57
21 -2 12 8 46 21 75 30 64 125 177 148 177 10 0 39 -24 64 -52 55 -61 50 -45
-8 25 -21 26 -45 47 -52 47 -15 0 -166 -164 -160 -174 3 -3 2 -4 -2 -1 -3 3
-17 -2 -30 -10 -22 -15 -23 -14 -23 9 0 14 12 47 28 73 55 96 107 173 117 173
6 0 32 -18 58 -39z m-473 -50 c16 -96 12 -126 -20 -126 -18 0 -37 16 -72 60
-26 32 -48 65 -48 72 0 14 85 62 112 63 12 0 19 -16 28 -69z m184 -241 c100
-49 127 -183 53 -267 -139 -158 -383 11 -284 197 43 81 145 112 231 70z m-216
-417 c-3 -55 -12 -99 -32 -148 -39 -97 -44 -101 -92 -74 -59 33 -116 74 -143
102 l-23 26 28 27 c57 54 205 144 236 144 l30 0 -4 -77z"/>
<path d="M3437 12533 c-4 -3 -7 -12 -7 -19 0 -7 -22 -34 -49 -59 -26 -25 -59
-65 -72 -90 -22 -42 -23 -46 -7 -62 16 -15 23 -16 70 -4 29 8 75 25 103 38 32
15 61 22 80 19 23 -4 21 -2 -7 6 -21 7 -38 15 -38 18 0 4 -16 28 -36 54 -27
36 -35 55 -32 77 5 31 5 32 -5 22z m31 -107 c17 -24 32 -50 32 -58 0 -29 -178
-75 -194 -50 -12 21 86 152 114 152 8 0 30 -20 48 -44z"/>
<path d="M2989 12229 c-84 -91 19 -222 130 -165 58 31 69 116 20 165 -25 26
-39 31 -76 31 -37 0 -50 -5 -74 -31z m142 -8 c21 -22 29 -39 29 -66 0 -51 -44
-95 -95 -95 -51 0 -95 44 -95 95 0 51 44 95 95 95 27 0 44 -8 66 -29z"/>
<path d="M3009 12221 c-35 -28 -34 -100 1 -130 70 -58 165 15 130 100 -7 16
-21 34 -31 39 -29 16 -75 11 -100 -9z"/>
<path d="M10256 12754 c-97 -23 -243 -107 -296 -171 -117 -138 -170 -272 -170
-428 0 -283 193 -527 475 -600 73 -20 221 -19 299 1 458 116 623 677 302 1023
-77 82 -207 157 -314 180 -72 15 -224 13 -296 -5z m326 -20 c85 -25 184 -83
247 -143 248 -239 252 -622 8 -858 -133 -129 -243 -173 -427 -173 -100 0 -125
4 -196 28 -175 62 -313 198 -376 373 -19 54 -23 84 -23 194 0 113 3 139 24
195 63 172 209 319 372 374 111 38 262 42 371 10z"/>
<path d="M10428 12694 c0 -16 -2 -36 -3 -44 -4 -36 11 -31 16 5 l6 40 14 -32
c9 -22 20 -33 34 -33 26 0 125 -29 125 -36 0 -3 -7 -18 -15 -34 -9 -17 -13
-30 -11 -30 7 0 36 56 36 67 0 11 -53 30 -106 39 -34 5 -44 12 -58 41 l-16 34
47 -8 c27 -4 66 -7 87 -6 22 1 34 -2 27 -6 -8 -5 5 -14 35 -26 l47 -18 -26
-14 c-15 -7 -27 -16 -27 -19 0 -2 9 0 21 6 30 16 34 6 12 -27 -27 -38 -35 -53
-30 -53 13 0 68 101 61 112 -13 21 58 -34 119 -91 31 -30 57 -59 57 -65 0 -5
-20 10 -45 34 l-46 45 -99 -104 c-67 -70 -104 -101 -110 -95 -12 12 3 61 37
119 23 39 23 39 1 10 -46 -59 -111 -125 -124 -125 -7 0 -20 12 -28 28 -8 15
-15 22 -16 17 0 -18 31 -55 46 -55 9 0 29 13 45 29 30 31 33 30 23 -6 -8 -28
-64 -49 -93 -34 -33 18 -62 62 -55 85 6 21 6 21 -9 1 -15 -19 -15 -19 -25 5
-6 14 -18 45 -26 70 l-16 45 5 -40 c3 -22 5 -51 5 -65 0 -19 2 -22 9 -11 8 12
11 9 16 -12 4 -15 4 -35 1 -44 -4 -12 0 -10 12 5 l18 23 13 -24 c7 -13 26 -31
42 -41 26 -15 34 -16 67 -4 20 7 42 13 47 13 6 1 21 7 34 14 22 12 23 12 16
-5 -4 -11 -9 -30 -12 -44 -2 -17 1 -13 10 10 19 50 58 107 112 165 l46 50 -6
-38 c-5 -34 -2 -42 34 -84 56 -63 54 -75 -21 -100 -81 -28 -107 -33 -124 -26
-29 11 -10 53 60 134 17 19 7 11 -21 -18 -59 -60 -74 -96 -50 -121 15 -14 21
-14 77 1 34 10 80 26 103 37 32 15 49 18 72 11 l30 -8 -28 -12 c-16 -6 -33
-11 -39 -11 -6 0 -9 -3 -6 -6 10 -10 88 19 88 33 0 7 -3 12 -7 11 -5 -1 -24 2
-43 6 -50 11 -120 106 -113 154 3 17 9 32 13 32 13 0 78 -79 109 -130 26 -45
60 -69 47 -33 -17 44 -75 129 -121 175 -67 68 -162 130 -188 122 -11 -4 -17
-2 -14 3 4 6 -5 15 -19 22 -32 14 -54 15 -34 0 11 -8 6 -9 -20 -4 -19 3 -56 9
-82 12 -47 6 -48 5 -50 -23z"/>
<path d="M9995 12568 c-60 -63 -136 -176 -135 -204 0 -5 16 20 35 56 20 35 42
71 51 80 20 18 18 12 -23 -66 -43 -83 -61 -153 -42 -165 8 -5 21 -9 29 -9 13
0 13 1 0 10 -21 13 -5 24 35 24 19 0 30 3 24 7 -15 9 32 123 52 127 26 5 141
-106 137 -132 -3 -19 -9 -21 -68 -19 -44 1 -59 -1 -45 -7 24 -10 87 -13 109
-4 32 12 18 53 -36 106 -29 27 -65 56 -79 64 -23 12 -47 59 -36 70 5 6 145
-130 182 -176 17 -22 22 -25 11 -8 -9 15 -16 30 -16 32 0 13 49 -18 53 -33 3
-10 5 -8 6 6 1 19 5 22 34 18 l32 -5 -30 10 c-17 5 -38 23 -47 40 -21 37 -16
37 26 5 18 -14 39 -25 47 -25 8 1 -2 9 -21 20 -65 34 -194 173 -188 201 2 7
12 22 23 32 20 18 20 18 -1 8 -44 -21 -46 -35 -12 -82 17 -24 44 -59 59 -77
32 -36 73 -111 66 -119 -12 -11 -78 35 -150 106 -69 67 -80 74 -97 63 -41 -25
-18 8 43 62 34 31 58 56 52 56 -5 0 -41 -33 -80 -72z"/>
<path d="M10710 12279 c-25 -6 -57 -8 -72 -6 -15 2 -24 -1 -21 -6 3 -5 23 -7
44 -5 43 4 49 -1 19 -20 -11 -7 -17 -18 -14 -27 4 -8 2 -15 -4 -15 -13 0 -52
-62 -52 -82 0 -8 7 -23 16 -34 15 -18 15 -18 5 3 -17 34 -13 50 19 86 25 28
34 33 62 29 31 -5 31 -5 9 -14 -41 -15 -81 -49 -81 -68 0 -11 17 -31 38 -46
l37 -26 -36 4 c-25 3 -35 0 -32 -8 2 -7 -13 -13 -43 -17 -30 -3 -53 -12 -61
-23 -22 -30 -15 -35 12 -9 30 31 94 35 112 7 10 -17 8 -18 -15 -15 -16 2 -10
-2 14 -10 46 -16 147 -69 183 -96 33 -25 22 -50 -59 -132 -65 -67 -90 -82 -90
-56 0 8 -4 7 -10 -3 -16 -24 -12 -32 13 -25 43 13 -13 -20 -83 -48 -36 -15
-58 -26 -50 -26 25 -1 123 43 170 76 67 46 140 124 182 194 21 35 38 67 38 73
0 6 -18 -21 -41 -59 -39 -68 -123 -165 -143 -165 -6 0 8 19 30 43 47 49 84 96
84 108 0 4 -34 27 -76 51 -77 44 -154 103 -154 119 0 13 57 11 81 -2 11 -6 25
-8 32 -6 7 2 -10 16 -38 30 -72 38 -88 53 -81 74 7 22 36 41 101 64 l50 18
-57 1 c-84 0 -84 22 1 61 40 19 28 21 -39 8z"/>
<path d="M10355 12215 c-18 -17 -25 -35 -25 -61 0 -21 3 -34 7 -31 3 4 16 -1
27 -12 28 -25 91 -34 107 -15 6 8 8 14 5 14 -4 0 0 7 9 16 29 29 -7 110 -43
97 -10 -4 -13 -2 -8 5 15 24 -54 13 -79 -13z"/>
<path d="M10140 12136 c44 -16 49 -38 16 -80 -14 -19 -22 -37 -18 -41 4 -5 1
-5 -6 -1 -8 5 -21 1 -30 -7 -9 -9 -48 -34 -87 -56 -38 -23 -65 -41 -60 -41 6
0 41 18 79 40 72 42 142 68 153 56 13 -12 -34 -61 -123 -129 -49 -38 -88 -74
-86 -80 7 -30 184 -157 219 -157 7 0 20 16 28 36 20 49 18 57 -4 15 l-18 -34
-7 33 c-3 19 -1 38 5 46 8 9 6 11 -8 8 -26 -6 -115 53 -111 74 2 9 30 38 63
64 56 46 97 60 108 38 3 -6 4 -5 3 2 -6 28 -48 19 -103 -22 -30 -23 -63 -51
-72 -62 -9 -11 -25 -24 -36 -28 -19 -8 -19 -9 1 -9 31 -1 128 -69 136 -94 16
-55 11 -58 -39 -31 -52 29 -107 68 -135 96 -14 14 -16 23 -8 38 11 21 144 117
208 149 46 23 58 21 72 -13 6 -14 9 -16 9 -5 1 8 -5 24 -13 34 -14 19 -15 19
-51 2 -43 -20 -51 -18 -31 8 21 29 74 24 103 -9 26 -30 31 -22 8 11 l-16 22
43 -19 c24 -11 61 -19 83 -19 38 1 37 2 -12 9 -63 9 -114 39 -142 83 -11 18
-21 28 -21 23 0 -5 11 -23 24 -41 l24 -31 -49 0 c-47 1 -60 8 -39 21 6 3 10
11 10 18 0 6 -7 1 -16 -11 -8 -12 -25 -22 -36 -22 l-21 0 21 23 c11 12 25 34
31 49 9 25 8 29 -19 43 -16 8 -37 15 -47 14 -10 0 -2 -6 17 -13z"/>
<path d="M6895 10354 c-850 -29 -1530 -173 -2215 -469 -356 -154 -544 -256
-952 -518 -132 -84 -110 -79 -388 -91 -91 -4 -231 -18 -585 -56 -100 -11 -417
-54 -595 -80 -863 -127 -1406 -270 -1524 -400 -122 -136 -222 -355 -261 -575
-29 -162 -33 -199 -32 -282 2 -67 6 -87 25 -112 18 -25 22 -43 22 -107 0 -66
-2 -77 -19 -81 -34 -9 -43 -114 -15 -162 21 -35 35 -43 131 -80 184 -69 333
-93 590 -95 184 -1 193 0 214 21 19 18 20 25 11 52 -10 30 -10 31 26 41 57 15
69 13 76 -17 14 -58 97 -210 148 -273 288 -351 775 -421 1153 -167 70 48 168
144 214 211 44 64 106 198 124 269 9 33 18 61 21 64 2 3 29 -12 59 -33 l55
-38 -5 -58 c-6 -56 -5 -58 23 -68 21 -8 693 -8 2454 -1 1334 6 2554 11 2713
11 l287 0 0 22 c0 28 48 78 74 78 17 0 27 -15 48 -73 39 -103 115 -212 211
-303 336 -317 855 -310 1185 17 115 114 208 285 234 431 7 39 15 58 25 58 28
0 123 -70 147 -109 14 -22 29 -42 33 -44 5 -3 47 1 93 9 78 14 90 14 139 -2
47 -15 82 -16 260 -11 255 8 635 27 680 33 43 7 81 45 81 82 0 39 8 40 240 42
l185 1 28 27 c35 33 53 66 62 115 l7 37 -38 0 -39 0 33 20 c17 11 32 27 32 35
0 8 11 34 25 56 37 57 73 272 82 490 l6 136 -32 59 c-17 33 -65 102 -105 154
l-74 94 -12 93 c-16 130 -55 313 -86 407 -33 99 -79 152 -165 191 -55 24 -80
28 -218 36 -86 4 -181 11 -211 13 -30 3 -129 8 -220 12 -134 5 -186 11 -275
34 -144 37 -318 99 -540 193 -311 131 -633 245 -993 352 -146 43 -515 137
-594 150 l-37 7 6 68 6 68 -39 11 c-41 11 -75 6 -153 -23 -24 -9 -68 -16 -97
-16 -30 0 -71 -7 -93 -16 -33 -13 -52 -14 -113 -5 -161 23 -353 41 -533 51
-195 10 -849 19 -1010 14z m1999 -20 c10 -4 16 -18 16 -41 l0 -35 -42 6 c-31
4 -37 3 -23 -3 11 -5 30 -10 43 -10 15 -1 22 -7 22 -22 0 -17 -5 -20 -22 -16
-13 3 -94 18 -181 33 -116 20 -154 30 -141 37 9 5 58 7 108 5 50 -3 80 -2 66
2 -25 6 -24 6 10 20 63 25 75 28 102 29 14 1 33 -2 42 -5z m-969 -30 c319 -19
405 -29 660 -70 115 -19 332 -61 410 -79 603 -141 1016 -274 1541 -496 117
-49 264 -106 328 -127 64 -22 119 -42 123 -45 3 -4 -14 -7 -38 -7 -24 0 -152
-7 -284 -16 -745 -47 -687 -45 -715 -23 -202 158 -341 248 -540 348 -635 322
-1377 481 -2248 481 -296 0 -374 -4 -707 -36 -153 -14 -489 -63 -585 -84 -25
-5 -90 -20 -145 -31 -656 -140 -1213 -391 -1544 -694 l-43 -40 -39 45 c-22 25
-39 50 -39 56 0 29 654 350 918 450 81 31 142 61 167 84 20 18 49 28 230 80
446 127 977 204 1540 224 180 7 776 -5 1010 -20z m-190 -74 c208 -20 246 -26
485 -67 622 -108 1233 -360 1643 -676 42 -33 77 -63 77 -67 0 -4 -78 -11 -172
-15 -95 -4 -181 -9 -191 -11 -9 -1 -89 -6 -177 -10 -120 -5 -160 -4 -160 5 0
6 6 13 13 15 9 3 406 23 555 29 23 1 12 16 -50 68 -262 219 -718 419 -1266
558 -262 66 -460 102 -827 148 -219 28 -877 25 -1150 -5 -328 -36 -331 -37
-620 -87 -765 -134 -1395 -413 -1760 -779 -61 -61 -130 -141 -154 -179 -24
-37 -46 -65 -48 -63 -8 8 16 44 96 144 237 298 640 545 1177 722 404 133 844
220 1359 270 275 26 903 27 1170 0z m-100 -40 c260 -26 416 -50 635 -97 126
-26 425 -104 431 -111 37 -47 129 -184 130 -194 0 -9 2 -9 5 -1 3 6 -19 47
-49 90 -68 99 -71 104 -55 99 158 -50 143 -41 201 -129 50 -77 139 -224 220
-364 l36 -62 -52 -5 c-29 -3 -146 -10 -262 -16 -115 -6 -421 -22 -680 -36
-258 -14 -553 -29 -655 -34 -225 -11 -551 -28 -642 -34 l-67 -5 4 67 4 67 -9
-64 c-5 -35 -10 -65 -12 -66 -2 -2 -40 -5 -85 -8 -79 -6 -83 -5 -83 15 0 11
18 117 40 236 22 120 47 253 55 297 29 154 47 251 59 310 l12 60 80 6 c138 12
530 0 739 -21z m-904 -261 c-58 -310 -97 -519 -112 -596 l-10 -53 -47 0 c-26
0 -71 -3 -99 -6 -51 -7 -53 -6 -54 17 0 24 0 24 -9 2 -7 -17 -20 -23 -62 -27
-52 -6 -510 -30 -863 -46 -245 -11 -556 -28 -637 -35 l-68 -5 10 26 c6 14 10
58 10 98 0 59 -4 79 -23 107 -29 44 -80 69 -140 69 -40 0 -49 4 -57 23 -9 21
-9 22 -9 1 -1 -17 -9 -22 -39 -26 -46 -7 -132 -57 -188 -110 -22 -21 -43 -36
-46 -32 -8 7 -64 -22 -89 -47 -19 -19 -25 -62 -13 -93 7 -18 100 -66 127 -66
9 0 18 -4 21 -8 5 -9 -354 -25 -362 -17 -2 2 17 35 44 72 57 80 171 196 270
275 97 78 284 199 295 192 5 -3 9 -1 9 5 0 14 232 129 380 189 412 165 906
280 1459 337 186 19 201 19 202 -2 1 -17 2 -17 6 -1 2 10 18 20 36 23 35 5
100 11 105 9 2 -1 -20 -125 -47 -275z m-1641 77 c0 -2 -51 -25 -112 -51 -466
-193 -858 -391 -1073 -540 -88 -61 -148 -95 -203 -116 -39 -15 -20 0 97 76
381 246 713 416 1126 576 148 57 165 63 165 55z m3930 -197 c28 -43 53 -79 56
-79 6 0 -7 23 -55 95 -22 33 -38 61 -36 63 2 2 27 -9 57 -24 29 -15 62 -28 73
-29 36 -4 216 -85 330 -148 131 -72 211 -124 284 -186 l54 -45 -38 -8 c-35 -8
-42 -6 -74 25 -87 82 -338 251 -466 313 -84 41 -70 31 50 -38 160 -90 413
-268 423 -297 1 -5 -64 -11 -145 -15 -81 -3 -175 -9 -209 -12 l-61 -6 -87 151
c-48 83 -90 151 -92 151 -3 0 -3 -3 -1 -7 2 -5 29 -51 59 -103 109 -189 109
-190 96 -190 -7 0 -29 28 -48 63 -41 76 -191 324 -225 375 -14 20 -25 41 -25
46 0 18 31 -19 80 -95z m-4940 -384 l43 -56 -41 -42 c-74 -76 -183 -230 -178
-251 3 -11 -2 -35 -11 -55 -26 -62 -71 -226 -89 -331 l-17 -100 -46 0 c-25 0
-53 -5 -61 -10 -10 -7 5 -8 48 -3 34 3 62 4 62 1 0 -3 -5 -30 -10 -59 -17 -85
-14 -485 4 -622 21 -155 22 -147 -16 -148 l-33 -2 35 -6 35 -6 17 -95 c9 -52
15 -96 13 -98 -3 -3 -109 -8 -411 -18 l-210 -6 -12 128 c-31 335 -121 548
-308 725 -181 171 -415 249 -704 236 -323 -15 -582 -145 -745 -372 -146 -206
-204 -425 -192 -736 l5 -146 -90 -7 c-50 -3 -202 -6 -337 -6 -222 1 -251 3
-301 21 -30 11 -65 23 -78 26 -12 3 -36 18 -52 33 -25 23 -30 36 -30 74 0 41
3 48 33 66 28 18 50 20 183 20 172 0 164 -4 164 86 0 44 -5 60 -23 78 -22 22
-31 23 -166 24 -119 0 -146 3 -161 17 -26 24 -34 103 -21 205 20 150 14 140
79 142 l57 2 -58 3 c-40 3 -57 8 -54 16 4 14 102 95 166 138 40 26 53 29 121
29 42 0 133 3 201 6 l124 6 -31 -29 c-17 -15 -39 -33 -50 -40 -10 -6 -14 -12
-8 -12 6 -1 36 20 67 47 32 26 74 61 94 77 90 74 235 268 255 342 14 50 3 45
233 104 341 87 1036 234 1270 269 33 5 123 18 200 30 231 34 423 80 526 124
20 8 39 13 41 11 6 -7 104 28 158 55 25 13 94 56 153 96 59 41 109 74 111 74
2 0 23 -25 46 -55z m7036 30 c27 -8 83 -15 124 -15 41 0 125 -4 185 -9 61 -6
183 -13 273 -17 109 -4 162 -10 162 -18 0 -6 -16 -54 -36 -106 -105 -276 -180
-515 -188 -595 -3 -24 -16 -82 -30 -129 -41 -132 -38 -131 -366 -145 l-185 -8
135 -1 c178 -2 324 13 364 36 26 15 36 33 62 112 l31 95 154 7 c85 3 186 9
226 12 l72 6 61 -80 c34 -44 63 -80 67 -80 3 0 1 6 -4 13 -80 105 -105 139
-102 142 2 2 33 5 69 6 l65 3 60 -76 c33 -42 75 -102 94 -133 28 -47 32 -58
20 -66 -11 -7 -11 -9 4 -9 15 0 17 -11 17 -81 0 -44 -4 -110 -9 -147 -6 -37
-17 -123 -27 -192 -15 -113 -38 -189 -62 -204 -5 -3 -33 -7 -63 -11 -73 -7
-479 -44 -604 -55 -55 -5 -176 -16 -270 -24 -93 -9 -219 -20 -280 -26 -60 -5
-207 -19 -325 -30 -117 -10 -215 -18 -215 -17 -1 1 -10 40 -19 87 -53 259
-155 475 -293 621 -36 38 -50 59 -41 62 7 3 4 6 -8 6 -12 1 -38 15 -59 31
-220 175 -579 227 -885 128 -383 -123 -615 -452 -681 -964 l-11 -91 -307 -7
c-168 -3 -544 -10 -836 -15 -291 -6 -584 -12 -650 -15 -66 -3 -250 -8 -410
-11 -759 -13 -868 -16 -985 -20 -69 -3 -348 -10 -620 -15 -272 -6 -693 -15
-935 -20 -242 -5 -486 -10 -542 -10 l-103 0 0 55 0 55 43 0 c81 0 1174 30
1472 40 165 6 478 15 695 20 425 11 1265 34 1790 50 179 5 503 14 720 20 217
6 398 13 401 16 13 8 143 185 255 349 128 185 321 497 418 672 l67 121 83 30
c138 51 215 62 428 63 174 2 184 3 103 10 -183 17 -428 -14 -562 -72 -25 -10
-43 -16 -41 -12 10 23 81 159 85 163 2 2 38 7 81 11 l77 6 -72 1 c-40 1 -73 4
-73 7 0 3 25 55 56 117 43 85 55 119 52 145 -4 31 -2 33 27 35 l30 1 -32 4
c-25 3 -34 11 -42 35 -6 17 -10 33 -8 35 2 1 140 10 308 18 167 8 320 17 339
20 46 7 391 31 650 46 113 6 252 15 310 19 169 11 194 11 246 -5z m-6456 -12
c20 -4 35 -13 38 -25 4 -15 7 -17 14 -6 7 10 11 9 23 -6 40 -52 25 -222 -21
-240 -11 -4 -13 1 -9 22 6 26 5 25 -8 -4 -14 -28 -20 -31 -77 -37 -75 -8 -183
-7 -224 2 -32 7 -62 41 -72 84 -5 22 -3 27 12 28 17 1 17 2 2 6 -10 2 -18 12
-18 21 1 20 34 62 49 62 6 0 11 4 11 10 0 12 74 60 120 76 39 14 110 18 160 7z
m4545 -54 c4 -6 5 -12 4 -13 -4 -3 -526 -31 -859 -46 -214 -10 -718 -37 -820
-45 -41 -3 -124 -7 -185 -10 -60 -3 -189 -9 -285 -15 -432 -23 -423 -23 -418
-10 5 16 13 17 163 24 66 3 289 15 495 26 206 11 456 25 555 30 488 23 1011
51 1110 59 163 12 233 12 240 0z m2766 -4 c64 -23 118 -64 139 -105 35 -69 84
-251 104 -387 6 -42 6 -43 -22 -43 -42 0 -59 -19 -72 -82 -11 -56 -13 -58 -43
-58 -18 0 -114 -5 -215 -11 -101 -6 -186 -9 -189 -6 -13 14 119 441 191 617
13 30 26 63 29 73 8 21 22 21 78 2z m-2741 -44 c18 -35 12 -49 -22 -54 -33 -4
-33 -4 4 -5 64 -3 61 -32 -13 -180 l-64 -127 -50 -6 -50 -6 43 -1 c23 -1 42
-4 42 -7 0 -3 -20 -46 -45 -95 -44 -87 -47 -91 -135 -150 -156 -105 -292 -248
-398 -416 -53 -86 -132 -235 -132 -250 0 -5 26 41 58 101 136 260 310 458 506
575 l39 23 -39 -69 c-177 -318 -372 -624 -571 -892 l-87 -119 -231 -6 c-126
-4 -473 -13 -770 -21 -297 -8 -598 -16 -670 -18 l-130 -3 -3 43 -3 42 68 2 68
2 -70 5 -70 6 -3 68 -3 67 43 2 43 1 -42 4 -43 4 0 187 c0 190 8 317 37 590
l16 152 36 1 c20 0 97 7 171 14 l135 14 -115 -5 c-63 -3 -139 -8 -169 -11
l-54 -6 7 59 c6 54 47 286 51 292 1 1 49 5 106 8 57 4 106 9 109 12 3 2 -43 2
-102 -1 l-108 -5 6 27 c4 14 7 27 8 27 3 3 191 15 461 29 165 8 336 17 380 20
241 14 922 50 1235 66 113 6 259 14 325 18 191 13 183 13 195 -8z m-2624 -90
c-10 -15 -68 -21 -291 -31 -285 -13 -1136 -58 -1315 -70 -80 -5 -172 -10 -205
-10 -50 0 -57 2 -45 14 11 10 123 19 455 36 445 22 593 30 1035 54 312 17 373
18 366 7z m-3146 -27 c-94 -30 -277 -67 -490 -98 -188 -28 -342 -56 -515 -92
-66 -14 -142 -29 -170 -34 -77 -15 -128 -26 -280 -60 -77 -18 -167 -38 -200
-46 -33 -7 -148 -36 -255 -63 -184 -47 -203 -50 -345 -54 -215 -5 -333 -39
-418 -122 -50 -49 -132 -172 -173 -259 -22 -49 -45 -82 -73 -104 -23 -18 -41
-29 -41 -24 0 22 42 129 80 200 85 164 157 226 340 293 156 57 504 151 754
204 297 62 526 109 621 125 28 5 127 23 220 40 370 67 435 78 555 91 179 19
275 26 370 27 l95 0 -75 -24z m3132 -34 c-3 -19 -10 -30 -21 -30 -11 0 -12 -3
-4 -8 13 -8 14 -6 -27 -237 -11 -60 -21 -130 -23 -155 -2 -25 -9 -88 -15 -140
-21 -171 -44 -587 -42 -747 0 -8 -21 -13 -57 -16 l-58 -3 63 -2 62 -2 0 -40 0
-40 -67 -2 -68 -2 68 -3 c64 -4 67 -5 67 -28 0 -24 -2 -25 -77 -26 -43 -1
-145 -5 -228 -9 -139 -7 -133 -8 77 -5 247 3 238 5 238 -56 l0 -29 -82 0 c-46
-1 -220 -5 -388 -10 -822 -26 -2132 -61 -2135 -58 -2 2 -6 22 -10 45 l-7 42
164 4 163 3 -167 2 c-161 2 -168 3 -168 22 0 18 7 20 68 22 l67 2 -70 5 c-63
5 -70 8 -73 29 -3 20 1 22 40 24 l43 1 -45 6 c-43 6 -45 7 -51 46 -21 123 -31
345 -25 530 3 110 9 215 12 233 6 30 9 32 53 34 l46 2 -47 3 c-47 4 -47 4 -42
36 20 113 60 272 85 340 17 45 28 86 25 94 -3 7 0 13 7 13 162 7 768 38 1717
90 201 11 433 23 515 26 83 4 188 10 235 14 47 4 108 8 136 9 l51 1 -5 -30z
m-4037 -35 c-10 -4 -144 -28 -250 -46 -104 -17 -166 -29 -380 -74 -121 -26
-231 -49 -245 -52 -45 -9 -353 -82 -415 -99 -219 -60 -383 -115 -472 -160
l-83 -41 -16 25 c-20 31 -12 39 71 80 121 60 401 141 660 192 155 31 342 65
470 85 83 14 177 29 210 35 33 5 114 17 180 25 66 9 140 20 165 24 45 9 124
13 105 6z m-1235 -417 c0 -52 -221 -333 -284 -361 -22 -10 -88 -16 -218 -20
-104 -4 -188 -4 -188 0 0 14 66 126 118 198 106 148 209 189 490 194 60 1 82
-2 82 -11z m-646 -100 c-48 -52 -79 -98 -119 -177 -35 -70 -75 -180 -75 -205
0 -7 -14 -23 -32 -36 l-31 -23 6 39 c18 111 104 305 184 416 l48 67 25 -24 24
-25 -30 -32z m1791 -84 c178 -38 309 -108 430 -229 134 -134 218 -310 261
-546 16 -91 31 -379 20 -379 -3 0 -29 17 -56 37 l-50 37 0 119 c0 172 -36 310
-118 450 -123 212 -354 367 -602 407 -552 87 -1042 -381 -980 -936 5 -51 12
-98 15 -106 4 -11 -7 -17 -42 -25 -26 -6 -50 -9 -52 -7 -3 2 -4 89 -4 192 1
153 4 202 21 272 58 235 153 403 302 527 79 66 236 145 345 174 144 38 366 43
510 13z m7255 6 c177 -22 302 -70 435 -168 227 -165 385 -504 411 -877 l7 -99
-43 37 c-24 20 -58 41 -76 47 l-34 12 0 76 c0 250 -91 465 -268 634 -438 418
-1150 264 -1379 -299 -60 -148 -75 -301 -47 -500 4 -31 3 -43 -7 -43 -6 0 -27
-12 -46 -26 -30 -23 -34 -23 -40 -8 -10 27 14 298 36 399 100 465 374 743 796
809 113 18 150 18 255 6z m-7370 -144 c326 -53 586 -293 666 -615 109 -439
-164 -888 -606 -996 -100 -25 -278 -25 -380 0 -299 71 -535 305 -611 605 -23
94 -26 280 -4 372 57 245 215 447 435 558 159 80 323 105 500 76z m7350 0
c355 -58 629 -341 680 -700 57 -406 -208 -802 -607 -907 -103 -27 -296 -29
-398 -4 -92 22 -255 102 -327 160 -115 92 -220 249 -267 396 -100 315 14 688
271 886 193 149 415 207 648 169z m2640 -681 c0 -8 -12 -18 -27 -21 -16 -4
-45 -27 -67 -51 -21 -24 -52 -51 -69 -60 -17 -8 -119 -28 -226 -44 -108 -15
-277 -40 -376 -54 -99 -15 -209 -31 -245 -35 -36 -5 -128 -18 -205 -30 -451
-67 -497 -72 -510 -58 -8 8 -14 50 -17 113 l-3 100 25 2 c14 2 126 12 250 23
124 11 376 33 560 50 184 17 387 35 450 41 63 5 176 16 250 23 189 19 210 19
210 1z m-11712 -7 c16 -16 15 -100 0 -118 -11 -12 -10 -12 5 -1 9 7 17 24 17
37 0 21 5 24 40 24 39 0 39 0 37 -37 l-2 -38 -152 -3 -153 -2 0 40 0 40 70 0
c60 0 70 -3 70 -17 1 -19 23 -53 34 -53 4 0 0 10 -8 22 -39 55 -1 149 42 106z
m11712 -103 c0 -20 -47 -94 -63 -101 -7 -2 -85 -3 -172 -2 l-160 3 90 13 c111
16 161 33 205 72 39 33 100 42 100 15z m-500 -170 c0 -63 -10 -67 -201 -81
-96 -7 -233 -13 -306 -13 -72 -1 -198 -6 -280 -11 -106 -8 -157 -8 -178 0 -15
6 -26 12 -24 14 2 3 85 16 184 30 99 14 241 35 315 46 74 11 170 25 214 30 43
5 80 11 82 12 1 2 46 3 98 4 l96 1 0 -32z m-3238 -67 c2 -46 3 -84 3 -84 -1
-11 -5351 -40 -5385 -29 -20 6 -28 48 -12 71 5 7 106 13 302 18 162 3 356 9
430 11 74 3 371 10 660 15 829 15 1040 20 1445 30 520 13 782 19 1175 26 184
4 430 9 545 13 116 4 350 8 522 9 l311 3 4 -83z m-7334 -80 c-2 -19 -12 -24
-53 -31 -69 -11 -298 0 -430 21 l-110 17 180 5 c418 13 417 13 413 -12z"/>
<path d="M10105 9201 c-51 -23 -91 -69 -107 -124 -6 -23 -13 -44 -15 -46 -1
-2 -42 -6 -90 -9 -49 -2 -90 -6 -93 -9 -3 -3 38 -3 92 -1 l96 4 6 -36 c8 -47
36 -92 81 -126 73 -55 198 -42 262 28 45 49 66 138 44 191 -6 16 -11 31 -11
33 0 3 -12 21 -26 39 -53 69 -157 94 -239 56z m152 -12 c47 -17 113 -92 113
-127 0 -5 -55 -14 -122 -20 l-123 -10 123 4 122 4 0 -37 c0 -47 -40 -116 -82
-141 -66 -39 -147 -35 -209 11 -32 23 -69 91 -69 125 0 20 6 22 58 24 l57 2
-59 3 -58 4 6 31 c8 40 49 94 90 119 35 21 108 25 153 8z"/>
<path d="M8784 9178 c3 -9 0 -19 -7 -22 -7 -2 12 -5 41 -5 l52 -1 0 -36 0 -36
-187 3 c-104 1 -196 5 -206 7 -25 6 -17 35 13 44 l25 7 -24 -2 c-13 -1 -29
-10 -35 -20 -9 -15 -7 -21 8 -33 11 -8 31 -14 44 -14 14 0 36 -13 52 -30 17
-18 38 -30 52 -29 20 1 20 2 -6 9 -27 9 -45 25 -46 43 0 4 52 7 115 7 68 0
115 -4 115 -10 0 -18 -49 -42 -102 -50 -47 -7 -49 -8 -15 -9 45 -1 95 18 121
48 17 18 30 21 102 21 45 0 94 4 109 10 37 14 43 39 16 62 -19 15 -41 18 -122
18 -82 0 -100 3 -109 18 -10 15 -11 15 -6 0z"/>
<path d="M2065 8207 c-106 -27 -228 -99 -301 -178 -237 -255 -219 -650 38
-883 111 -101 258 -156 416 -156 249 0 463 137 567 363 152 329 -19 717 -368
839 -77 26 -274 35 -352 15z m245 -8 c178 -28 325 -125 420 -275 69 -109 85
-170 85 -319 0 -110 -4 -140 -23 -194 -63 -175 -201 -311 -376 -373 -70 -24
-96 -28 -195 -28 -187 0 -301 47 -434 178 -85 84 -139 184 -162 301 -83 407
274 777 685 710z"/>
<path d="M2012 8157 c-12 -7 -19 -17 -15 -21 4 -5 -1 -6 -13 -2 -27 8 -126
-55 -194 -126 -44 -45 -120 -160 -120 -181 0 -20 28 4 51 43 15 25 46 67 70
94 l44 50 6 -40 c6 -35 2 -45 -35 -95 -31 -44 -49 -59 -76 -65 -19 -4 -38 -7
-42 -6 -5 1 -8 -4 -8 -11 0 -13 77 -43 87 -34 2 3 -9 8 -26 12 -17 4 -33 10
-36 15 -8 13 57 21 72 9 7 -7 16 -9 20 -5 3 3 1 6 -5 6 -24 0 -11 39 29 83 36
42 39 50 34 84 l-6 38 51 -55 c28 -30 58 -68 66 -83 9 -16 18 -26 21 -23 3 3
18 -3 33 -14 15 -11 29 -17 32 -15 3 3 22 -2 44 -11 36 -15 41 -15 70 1 17 9
38 28 45 42 l13 24 18 -23 c12 -15 16 -17 12 -5 -8 24 5 75 15 58 5 -7 11 11
15 45 3 31 5 59 3 61 -2 2 -12 -23 -21 -56 -9 -33 -21 -63 -26 -66 -14 -9 -29
27 -31 79 -2 26 -6 49 -11 52 -14 9 -8 -76 8 -107 14 -28 14 -33 0 -55 -9 -13
-27 -31 -41 -40 -44 -28 -104 4 -105 58 0 3 13 -7 29 -23 16 -16 36 -29 45
-29 15 0 46 37 46 55 -1 5 -8 -2 -16 -17 -8 -16 -21 -28 -28 -28 -13 0 -83 71
-123 125 -12 18 -6 0 15 -43 27 -55 33 -75 24 -84 -9 -9 -36 13 -112 92 l-100
105 -45 -45 c-25 -24 -45 -39 -45 -34 0 6 26 35 58 65 60 57 131 112 118 91
-7 -11 48 -112 61 -112 5 0 -3 15 -30 53 -23 33 -18 43 15 27 22 -11 22 -10 4
4 -11 9 -25 16 -30 16 -6 0 -3 5 7 11 9 6 15 15 11 21 -4 6 1 8 13 4 26 -8 60
4 42 14 -7 5 5 8 27 7 21 -1 60 2 87 6 l47 8 -17 -34 c-15 -29 -25 -36 -58
-41 -52 -9 -105 -28 -105 -39 0 -11 29 -67 36 -67 2 0 -2 13 -11 30 -8 16 -15
31 -15 34 0 7 99 36 125 36 14 0 25 11 35 33 l14 32 3 -37 c5 -43 20 -52 17
-10 -1 15 -2 38 -3 51 -1 22 -4 23 -48 18 -27 -3 -64 -9 -83 -12 -26 -5 -31
-4 -20 4 13 10 13 11 0 10 -8 0 -25 -5 -38 -12z"/>
<path d="M2445 8113 c28 -14 61 -34 74 -44 l23 -19 -28 -11 c-20 -7 -37 -8
-54 -1 -58 22 -63 23 -30 1 19 -12 37 -24 39 -25 2 -2 -12 -25 -32 -51 -76
-104 -117 -119 -128 -48 l-6 40 -2 -35 c-1 -39 13 -60 41 -60 22 0 98 77 124
125 15 29 74 67 74 48 0 -11 -72 -97 -114 -136 -23 -21 -57 -47 -76 -57 -19
-11 -29 -19 -21 -20 8 0 29 11 47 25 42 32 47 32 26 -5 -9 -17 -30 -35 -47
-40 l-30 -10 33 5 c28 4 32 1 33 -18 1 -14 3 -16 6 -6 4 15 53 46 53 33 0 -2
-7 -17 -16 -32 -14 -23 -13 -23 6 3 30 40 181 187 187 182 11 -12 -12 -59 -36
-71 -14 -8 -50 -37 -78 -64 -55 -53 -69 -94 -37 -106 22 -9 85 -6 109 4 14 6
-1 8 -45 7 -59 -2 -65 0 -68 19 -4 26 111 137 137 132 20 -4 67 -118 52 -127
-6 -4 5 -7 24 -7 40 0 56 -11 35 -24 -9 -6 -10 -10 -3 -10 26 0 43 13 43 34 0
14 -3 17 -8 8 -7 -10 -16 -9 -45 3 -20 8 -37 21 -37 28 0 8 -11 35 -24 61 -21
42 -22 51 -12 88 l13 41 22 -37 c13 -21 36 -67 52 -104 16 -37 29 -60 29 -52
0 9 -17 49 -37 90 -48 96 -48 98 -29 80 9 -9 31 -45 51 -80 19 -36 35 -61 35
-56 1 43 -149 240 -204 267 -12 6 5 -13 37 -41 56 -51 72 -75 42 -63 -11 4
-42 -19 -93 -69 -71 -70 -137 -116 -149 -105 -8 9 34 81 86 145 76 95 77 97
39 125 -35 27 -112 67 -125 67 -4 -1 15 -13 42 -27z"/>
<path d="M2339 7731 c23 -23 41 -47 41 -53 0 -8 3 -9 8 -3 4 6 22 2 49 -11
l42 -21 -35 -31 c-27 -24 -34 -37 -32 -64 l1 -33 4 31 c6 46 44 79 80 69 l28
-8 -26 -7 c-57 -16 -69 -28 -58 -58 6 -15 20 -37 31 -49 l21 -23 -21 0 c-11 0
-28 10 -36 22 -9 12 -16 17 -16 11 0 -7 5 -15 10 -18 21 -13 8 -20 -39 -21
l-49 0 24 31 c13 18 24 36 24 41 0 5 -10 -5 -21 -23 -28 -44 -79 -74 -142 -83
-49 -7 -50 -8 -12 -9 22 0 59 8 83 19 l43 19 -16 -22 c-23 -33 -18 -41 8 -11
29 33 82 38 103 9 20 -26 12 -28 -31 -8 -36 17 -37 17 -51 -2 -8 -10 -14 -26
-13 -34 0 -11 3 -9 9 5 14 34 26 36 72 13 65 -33 197 -128 209 -151 9 -16 7
-23 -8 -37 -32 -30 -87 -68 -135 -95 -51 -27 -56 -24 -40 31 9 27 106 93 141
94 20 1 22 2 6 6 -11 3 -30 16 -43 29 -47 50 -131 106 -153 102 -12 -2 -24 -9
-25 -16 -1 -7 0 -8 3 -2 11 22 52 8 108 -38 33 -26 61 -55 63 -65 3 -16 -78
-77 -103 -77 -7 0 -20 18 -30 40 -10 22 -20 38 -23 36 -2 -3 7 -26 21 -51 19
-34 25 -54 20 -77 l-6 -31 -18 34 c-22 42 -24 34 -4 -15 8 -20 21 -36 28 -36
35 0 212 127 219 157 2 6 -37 42 -86 80 -89 68 -136 117 -123 129 11 12 81
-14 153 -56 38 -22 73 -40 79 -40 5 0 -22 18 -60 41 -39 22 -78 47 -87 56 -9
8 -22 12 -30 7 -7 -4 -10 -4 -6 1 4 4 -4 22 -18 41 -14 18 -24 41 -22 50 5 26
71 44 193 53 l110 8 -120 2 c-129 1 -164 11 -131 36 10 8 44 19 75 26 71 14
124 32 71 24 -132 -22 -187 -18 -221 16 -14 14 -19 16 -19 4 0 -18 24 -31 75
-41 36 -6 38 -8 18 -17 -28 -12 -62 -3 -91 23 -14 13 -22 16 -22 8 0 -7 -12 2
-26 20 -14 17 -35 37 -46 43 -11 6 -1 -8 21 -30z"/>
<path d="M2196 7678 c5 -7 2 -9 -8 -5 -35 13 -72 -68 -44 -95 8 -9 13 -18 10
-20 -9 -10 27 -31 64 -39 l37 -7 -36 -1 c-49 -1 -85 29 -98 82 l-11 42 5 -40
c10 -88 110 -126 174 -66 19 17 31 38 30 53 -1 22 -2 20 -15 -22 -4 -10 -7
-11 -12 -3 -5 7 -12 6 -22 -5 -13 -14 -12 -15 3 -9 9 3 17 2 17 -2 0 -5 -7
-12 -16 -15 -21 -8 -26 -8 -20 2 2 4 -10 7 -27 6 -23 -1 -25 0 -7 3 14 3 34
13 46 24 11 11 24 16 27 12 4 -3 7 10 7 31 0 47 -36 86 -80 86 -21 0 -29 -4
-24 -12z"/>
<path d="M1875 7641 c61 -22 93 -41 100 -60 8 -20 -26 -53 -82 -81 -26 -13
-42 -25 -36 -27 7 -3 21 0 32 6 25 14 81 14 81 1 0 -13 -50 -59 -85 -77 -58
-30 -145 -86 -145 -93 0 -12 39 -61 94 -117 28 -29 46 -53 40 -53 -20 0 -124
117 -165 185 -22 39 -38 61 -35 50 42 -127 242 -304 371 -330 17 -4 1 6 -35
21 -36 15 -74 33 -85 41 -20 15 -19 15 3 8 24 -7 28 1 12 25 -6 10 -10 11 -10
3 0 -26 -25 -11 -90 56 -81 82 -92 107 -59 132 37 28 139 81 183 95 27 8 33
13 19 13 -16 1 -21 6 -17 16 10 25 81 19 109 -10 27 -26 34 -21 12 9 -8 11
-31 20 -61 23 -30 4 -45 10 -43 17 3 8 -7 11 -32 8 l-36 -4 38 26 c21 15 37
35 37 46 0 19 -63 70 -87 70 -7 0 -13 5 -13 10 0 6 -15 10 -32 10 -31 -1 -30
-2 17 -19z"/>
<path d="M9395 8201 c-109 -32 -184 -78 -270 -165 -129 -130 -179 -251 -179
-431 1 -181 50 -301 179 -431 126 -127 261 -184 438 -184 179 0 315 57 442
185 123 123 174 240 180 410 6 182 -49 320 -180 450 -88 89 -177 142 -281 169
-84 22 -250 20 -329 -3z m259 -1 c143 -21 284 -100 376 -211 89 -107 129 -208
137 -349 10 -177 -50 -336 -176 -460 -70 -69 -167 -127 -260 -154 -74 -22
-254 -21 -329 0 -139 40 -259 127 -338 245 -75 113 -98 191 -98 334 0 90 4
134 18 175 73 220 268 388 490 420 74 11 103 11 180 0z"/>
<path d="M9415 8175 c-71 -20 -145 -56 -138 -68 3 -6 1 -7 -6 -3 -16 10 -109
-60 -154 -116 -47 -59 -75 -104 -58 -94 9 6 12 5 9 -5 -3 -8 -11 -13 -17 -11
-6 1 -20 -18 -31 -44 -23 -52 -27 -85 -5 -39 9 18 14 22 12 11 -2 -16 16 -25
109 -55 171 -56 207 -90 96 -92 l-57 -1 35 -13 c42 -16 61 -18 40 -5 -11 7 -6
10 21 10 64 0 101 -65 68 -119 -14 -23 -26 -31 -46 -31 l-28 0 38 27 c20 14
37 31 37 38 0 13 -52 65 -65 65 -5 0 6 -13 25 -29 l35 -29 -22 -24 c-12 -13
-59 -41 -103 -63 -44 -21 -78 -40 -77 -42 2 -1 30 9 63 22 58 24 124 33 124
17 0 -16 -49 -54 -137 -107 -48 -29 -89 -59 -91 -67 -2 -9 20 -40 48 -71 53
-58 64 -78 29 -53 -34 24 -100 116 -135 191 -18 39 -33 64 -34 56 0 -18 55
-127 87 -171 43 -58 124 -130 189 -166 33 -19 65 -34 70 -34 5 1 -11 11 -36
24 -25 13 -45 28 -45 32 -1 5 -35 43 -78 85 -47 47 -77 85 -77 98 0 26 49 59
156 107 44 20 69 33 57 31 -25 -6 -29 3 -11 21 15 15 72 16 98 2 11 -6 24 -27
29 -47 9 -33 8 -40 -10 -58 l-20 -20 7 53 c4 28 3 52 -2 52 -5 0 -10 -20 -10
-44 -1 -30 -18 -78 -54 -155 -53 -112 -54 -112 -67 -84 -7 15 -11 20 -8 10 3
-10 5 -27 5 -38 0 -37 16 -18 62 74 50 100 94 161 110 151 14 -9 2 -74 -27
-157 -14 -38 -25 -74 -25 -80 1 -7 14 24 30 67 16 43 37 91 46 105 25 40 66
81 81 81 16 0 41 -48 64 -120 l17 -55 -6 74 c-5 73 -5 74 17 68 18 -4 20 -3
10 9 -6 8 -15 14 -20 14 -4 0 -20 11 -35 25 -34 31 -62 32 -108 0 l-36 -24 -6
40 c-8 48 -43 79 -90 79 -19 0 -34 2 -34 5 0 3 9 22 20 42 23 43 19 66 -18
105 -14 15 -23 31 -19 34 4 4 -3 14 -16 23 -22 16 -21 16 23 21 l45 5 -1 40
c-1 22 -5 51 -9 63 -7 22 -6 23 13 11 12 -7 23 -22 25 -34 4 -18 4 -18 6 3 1
26 3 27 43 6 40 -21 69 -12 107 31 27 31 32 34 38 18 9 -28 45 -63 62 -62 10
0 8 3 -6 9 -12 5 -29 23 -38 40 -14 26 -14 33 -2 51 13 18 15 17 20 -22 3 -23
11 -45 18 -50 15 -9 74 14 101 38 21 19 22 14 6 -22 -6 -14 -23 -28 -37 -31
-44 -10 -48 -14 -7 -10 35 5 38 3 32 -17 -3 -12 -6 -35 -6 -51 l0 -29 -21 27
c-73 93 -230 85 -295 -14 -79 -118 -6 -274 134 -288 44 -4 63 1 136 36 6 3 0
-8 -12 -23 -12 -15 -22 -37 -22 -49 0 -14 6 -8 19 20 26 58 90 70 119 23 15
-23 14 -23 -33 -4 -51 22 -65 8 -65 -62 0 -32 -4 -52 -10 -48 -5 3 1 -18 14
-47 13 -29 34 -80 47 -113 14 -33 32 -61 40 -63 22 -4 133 67 184 117 l45 44
-68 51 c-80 61 -152 129 -152 145 0 18 30 13 90 -14 56 -26 55 -23 -24 38 -46
36 -74 86 -54 98 26 18 93 31 192 38 l101 8 -115 2 c-63 1 -124 6 -135 10 -18
7 -18 9 7 25 14 9 58 23 99 32 40 8 76 18 79 21 3 3 -8 3 -25 -1 -82 -17 -161
-18 -197 -3 -21 9 -38 23 -38 31 0 28 191 238 205 225 11 -11 -17 -67 -38 -76
-29 -14 -115 -90 -128 -114 -7 -13 -6 -25 1 -39 13 -25 74 -27 140 -5 38 13
40 15 10 10 -105 -17 -126 -17 -140 0 -13 15 -7 23 52 81 36 35 72 64 81 64
22 0 68 -111 53 -129 -9 -12 -8 -13 7 -8 22 8 67 -1 67 -14 0 -5 -7 -9 -17 -9
-9 0 -14 -3 -10 -6 11 -12 57 6 57 22 0 8 -4 13 -10 9 -12 -8 -80 21 -80 34 0
6 -12 35 -26 64 -23 50 -24 57 -12 88 l14 33 22 -31 c12 -17 35 -64 51 -104
17 -41 31 -68 31 -61 0 20 -47 129 -70 163 -12 16 -20 33 -17 35 3 3 18 -13
33 -35 15 -23 29 -39 32 -37 9 9 -91 128 -142 168 -74 59 -183 110 -221 103
-20 -4 -25 -3 -17 3 36 24 -198 30 -283 7z m231 -12 c-3 -10 -10 -61 -17 -113
-15 -125 -45 -201 -62 -157 -3 6 -6 1 -6 -12 -1 -26 -55 -81 -78 -81 -29 0
-73 31 -73 51 0 20 1 20 31 -5 17 -14 37 -26 45 -26 15 0 54 69 54 97 0 15 2
16 10 3 9 -14 4 206 -5 237 -2 6 -19 13 -37 16 -18 2 7 5 55 5 80 2 88 0 83
-15z m-137 -37 c-16 -27 -28 -35 -62 -40 -23 -4 -49 -11 -57 -17 -12 -8 -9 -9
10 -5 85 20 98 19 103 -5 3 -15 5 -8 6 17 0 25 8 47 17 55 26 21 16 -201 -11
-255 -11 -22 -25 -41 -31 -43 -5 -2 -27 14 -48 34 -43 43 -151 201 -143 209
12 12 48 -19 62 -51 23 -57 85 -144 106 -150 25 -8 49 11 48 39 0 18 -2 17
-11 -6 -5 -16 -16 -28 -23 -28 -25 0 -123 148 -111 168 2 4 -14 16 -35 26 -44
22 -42 28 15 46 28 9 35 15 25 21 -10 7 -6 8 11 4 14 -3 45 -1 70 4 81 16 82
16 59 -23z m328 -38 c38 -23 50 -36 48 -50 -9 -44 -151 -188 -205 -207 -46
-16 -54 10 -46 143 3 61 10 125 14 141 l9 30 12 -23 c10 -20 10 -36 -4 -91 -9
-37 -15 -90 -13 -117 3 -44 5 -49 29 -52 21 -2 36 8 75 51 62 69 91 117 71
117 -8 0 -41 14 -73 31 -55 28 -83 57 -84 86 0 17 101 -19 167 -59z m-16 34
c79 -40 163 -102 180 -133 7 -15 6 -17 -6 -13 -9 4 -42 -20 -92 -66 -43 -39
-95 -80 -115 -91 -64 -33 -55 -13 90 185 l32 45 -45 31 c-25 17 -68 42 -97 55
-29 14 -46 25 -38 25 9 0 49 -17 91 -38z m-516 -95 c82 -129 95 -153 95 -180
0 -26 -1 -27 -23 -12 -13 8 -27 13 -30 10 -4 -3 -5 -2 -2 1 6 10 -145 174
-160 174 -7 0 -31 -21 -52 -47 -58 -70 -63 -86 -8 -25 25 28 54 52 64 52 23 0
118 -113 148 -177 13 -29 23 -63 21 -75 -3 -21 -8 -23 -59 -21 -64 3 -227 47
-247 67 -11 11 -10 20 4 52 18 39 21 48 23 71 3 29 149 173 176 173 5 0 28
-28 50 -63z m455 18 c28 -14 50 -31 50 -38 0 -7 -22 -40 -48 -72 -35 -44 -54
-60 -72 -60 -32 0 -36 30 -20 126 14 79 17 81 90 44z m-110 -288 c103 -54 120
-198 34 -279 -123 -115 -318 -8 -291 159 19 115 150 177 257 120z m196 -396
c49 -32 102 -70 118 -85 l28 -27 -23 -26 c-27 -28 -84 -69 -143 -102 -48 -27
-53 -23 -92 74 -20 49 -29 93 -32 148 l-4 77 30 0 c20 0 60 -20 118 -59z"/>
<path d="M9188 7960 c3 -21 -5 -40 -32 -76 -20 -26 -36 -50 -36 -54 0 -3 -17
-11 -37 -18 -29 -8 -31 -10 -8 -6 19 3 48 -4 80 -19 28 -13 74 -30 103 -38 46
-11 54 -11 69 3 23 24 3 66 -69 141 -32 34 -58 67 -58 74 0 6 -4 14 -8 17 -5
3 -6 -8 -4 -24z m76 -85 c43 -52 67 -95 60 -107 -16 -25 -194 21 -194 50 0 22
63 101 80 102 9 0 33 -20 54 -45z"/>
<path d="M9491 7679 c-35 -35 -41 -81 -17 -128 31 -58 116 -69 165 -20 43 43
44 103 2 148 -24 26 -37 31 -74 31 -37 0 -51 -5 -76 -31z m140 -8 c21 -22 29
-39 29 -66 0 -27 -8 -44 -29 -66 -22 -21 -39 -29 -66 -29 -27 0 -44 8 -66 29
-21 22 -29 39 -29 66 0 27 8 44 29 66 22 21 39 29 66 29 27 0 44 -8 66 -29z"/>
<path d="M9519 7680 c-9 -5 -22 -23 -29 -40 -35 -84 60 -157 130 -99 35 30 36
102 1 130 -25 20 -75 25 -102 9z"/>
<path d="M4665 5643 c-16 -8 -38 -23 -48 -32 -26 -22 -118 -146 -150 -202
l-27 -47 -147 -7 c-82 -4 -398 -4 -703 1 -1067 16 -1617 4 -1865 -42 -154 -28
-299 -100 -423 -210 -37 -33 -105 -89 -152 -124 -47 -36 -125 -105 -175 -155
-76 -76 -104 -114 -180 -245 -163 -280 -310 -598 -350 -755 -13 -52 -33 -193
-60 -425 -8 -74 -22 -194 -30 -267 -14 -119 -14 -147 0 -270 45 -406 74 -625
90 -688 41 -160 198 -497 358 -768 104 -175 192 -272 361 -396 32 -24 82 -65
110 -90 146 -133 285 -205 451 -235 245 -45 858 -59 1870 -42 281 5 585 5 677
1 l167 -7 55 -87 c30 -47 82 -113 115 -145 54 -53 64 -59 111 -64 43 -4 55 -1
75 18 33 31 32 67 -4 160 -15 41 -31 85 -35 96 l-7 22 1848 -4 c1129 -3 1885
-8 1943 -14 52 -6 136 -15 185 -20 50 -5 245 -15 435 -21 474 -17 854 2 1042
51 24 6 70 19 103 27 71 18 264 82 390 128 50 18 133 43 185 56 52 12 290 71
529 131 476 118 537 140 656 237 156 126 262 352 338 721 31 151 62 368 72
515 3 39 9 133 15 210 13 180 13 511 0 690 -6 77 -12 172 -15 210 -14 208 -58
476 -112 683 -67 257 -167 447 -286 543 -127 103 -200 131 -593 228 -181 45
-351 88 -379 95 -27 8 -102 26 -165 41 -124 29 -155 38 -358 110 -327 114
-541 159 -787 166 -369 11 -890 -2 -1105 -27 -115 -13 -411 -17 -2035 -24
-1045 -5 -1901 -7 -1903 -5 -2 1 13 44 32 95 42 109 45 148 13 178 -28 26 -88
29 -132 5z m31 -80 c-53 -106 -152 -352 -163 -404 l-5 -29 -79 0 c-44 0 -79 3
-79 8 0 7 30 64 99 187 83 149 194 285 232 285 18 0 18 -3 -5 -47z m61 -52
c-9 -20 -27 -67 -42 -106 -80 -214 -84 -223 -105 -218 -18 5 -17 10 9 82 50
133 122 299 138 315 15 15 15 -37 0 -73z m5203 -146 c69 -7 132 -16 140 -19 8
-3 29 -7 45 -10 75 -11 184 -42 365 -102 256 -86 274 -98 112 -74 -116 16
-528 63 -702 79 -63 6 -185 18 -270 26 -85 8 -249 19 -364 26 l-209 11 -61 34
c-41 23 -54 34 -41 35 261 20 781 17 985 -6z m-6508 -51 l456 -7 49 -91 49
-91 -200 -7 c-111 -4 -280 -12 -376 -17 l-175 -10 240 5 c132 2 305 7 385 10
l145 6 16 -29 c9 -17 46 -49 83 -73 l66 -43 -56 -19 c-31 -10 -66 -25 -78 -33
-19 -12 -29 -12 -76 0 -30 8 -75 14 -100 14 -36 -1 -26 -4 47 -17 l92 -15 -37
-43 -37 -44 -95 8 c-160 12 -1763 7 -1965 -6 -99 -7 -214 -15 -255 -17 -41 -3
-97 -8 -124 -12 l-49 -6 43 54 c40 52 45 54 99 60 l56 6 -62 1 c-55 2 -63 4
-63 22 0 45 -122 70 -234 46 -58 -12 -75 -21 -113 -58 -106 -102 -237 -300
-301 -454 -16 -38 -51 -118 -76 -179 -59 -137 -86 -213 -86 -241 0 -12 -25
-52 -55 -90 -93 -116 -149 -239 -207 -454 -20 -76 -27 -91 -23 -55 3 28 10 93
15 145 18 178 45 286 117 460 62 152 242 489 341 640 53 82 136 161 296 285
22 17 71 57 110 91 93 80 152 119 239 159 96 44 171 60 362 80 176 18 758 35
955 29 69 -2 330 -7 582 -10z m3120 -74 c15 -46 28 -90 28 -97 0 -11 -190 -13
-1010 -13 -555 0 -1010 4 -1010 8 0 5 19 8 42 8 l42 -1 30 80 c16 44 31 82 33
84 4 6 1046 18 1462 17 l354 -1 29 -85z m1918 79 c-15 -5 5 -5 50 -1 118 11
382 7 408 -7 42 -22 23 -31 -67 -31 -66 0 -92 4 -101 15 -7 8 -22 15 -34 14
l-21 0 21 -9 c12 -5 25 -13 29 -19 4 -7 47 -11 111 -11 101 0 105 1 99 20 -6
19 -5 19 31 -3 58 -35 144 -118 144 -138 0 -18 -39 -19 -1253 -19 l-1253 0
-28 88 c-16 48 -31 93 -33 100 -4 9 191 12 958 11 556 -1 953 -5 939 -10z
m-4127 -99 l-46 -90 -133 0 -132 0 -37 73 c-21 39 -41 76 -46 82 -5 5 -9 13
-9 17 0 4 101 8 225 8 l224 0 -46 -90z m5022 40 c257 -16 520 -40 825 -75 69
-8 170 -19 225 -25 131 -14 314 -37 445 -56 140 -20 587 -131 627 -156 44 -26
94 -86 132 -157 17 -33 31 -61 31 -64 0 -2 -26 4 -57 15 -32 10 -109 32 -173
49 -63 17 -135 37 -159 45 -43 14 -89 19 -80 9 3 -2 57 -18 120 -34 63 -17
125 -33 139 -37 14 -3 68 -19 122 -36 l96 -29 20 -57 c11 -31 27 -78 36 -104
l15 -48 -52 0 c-29 0 -90 4 -137 10 -47 5 -134 12 -195 14 -60 3 -190 11 -288
17 -133 9 -214 9 -320 0 -78 -6 -185 -13 -237 -16 -52 -2 -162 -9 -245 -15
-340 -24 -567 -41 -685 -50 -69 -6 -156 -13 -195 -15 -82 -5 -244 -20 -435
-40 -288 -30 -2291 -27 -2815 5 -158 9 -277 18 -460 36 -59 6 -160 26 -265 53
-41 11 -122 32 -180 47 -58 15 -121 30 -140 34 -19 4 -125 29 -235 54 -301 70
-681 143 -837 162 l-58 6 19 27 c26 35 116 88 183 107 54 16 58 15 129 -9 41
-14 99 -31 129 -38 30 -7 93 -23 140 -36 47 -14 110 -31 140 -39 30 -8 98 -28
150 -44 154 -46 470 -121 635 -149 415 -72 715 -96 1195 -96 421 0 795 21
1250 71 74 8 180 19 235 25 138 14 310 37 590 80 39 6 79 12 90 14 80 11 180
29 235 40 36 8 106 21 155 30 50 9 106 21 125 25 19 5 67 17 105 26 239 57
375 115 375 161 0 37 -33 41 -460 48 -228 4 -417 8 -420 10 -3 2 -198 6 -435
9 -236 3 -668 11 -960 17 -291 5 -617 11 -724 12 -145 2 -195 5 -199 15 -3 9
264 12 1310 14 722 0 1299 3 1282 5 -24 3 -33 11 -43 38 -6 19 -27 49 -46 68
-19 19 -33 36 -30 38 4 5 28 4 260 -11z m-5075 -147 c0 -19 -49 -74 -73 -83
-31 -10 -63 1 -119 43 -56 41 -46 47 77 47 63 0 115 -3 115 -7z m237 -95 c18
-56 31 -103 30 -105 -4 -3 -189 43 -249 63 l-47 15 34 44 c18 25 36 54 40 65
6 18 15 20 83 20 l77 0 32 -102z m2063 89 c0 -11 -22 -13 -102 -9 -57 2 -515
7 -1018 11 l-915 8 1018 1 c843 2 1017 0 1017 -11z m-221 -41 c8 -9 12 -18 9
-22 -3 -3 -311 2 -685 11 -373 9 -683 16 -688 15 -6 -1 -106 -2 -222 -1 -155
1 -213 4 -213 13 0 8 217 10 892 5 775 -6 894 -8 907 -21z m1333 -11 c64 -2
322 -7 572 -11 318 -5 456 -11 456 -18 0 -7 3 -7 8 0 5 9 100 10 372 3 611
-14 692 -18 688 -38 -10 -53 -336 -143 -863 -236 -264 -46 -722 -108 -1000
-135 -60 -6 -177 -17 -260 -25 -342 -32 -531 -40 -990 -40 -466 0 -618 7 -880
41 -158 20 -253 34 -310 45 -27 6 -72 14 -100 19 -63 11 -284 59 -308 66 -10
3 -17 8 -15 10 3 2 58 -7 124 -20 444 -88 955 -136 1456 -136 603 0 1462 72
2108 176 52 8 124 19 160 25 262 39 559 107 628 143 32 17 50 41 39 52 -6 6
-459 18 -1072 29 -1735 30 -1674 28 -1682 51 -4 12 585 11 869 -1z m-1907 -25
c253 -6 491 -10 528 -10 l68 0 49 -102 c101 -216 140 -301 140 -310 0 -4 -51
-6 -112 -3 -488 21 -571 28 -883 71 -285 40 -391 59 -580 105 -22 5 -49 11
-60 14 -45 8 -146 37 -236 66 l-96 32 -26 79 -25 79 386 -6 c213 -3 594 -10
847 -15z m781 -20 c41 0 42 -1 59 -47 42 -121 95 -318 95 -355 0 -5 -29 -8
-65 -8 l-65 0 -33 73 c-19 39 -44 95 -57 122 -12 28 -40 88 -61 133 -22 46
-39 86 -39 89 0 3 28 3 61 -1 34 -3 81 -6 105 -6z m280 -67 c10 -38 19 -74 20
-81 1 -7 7 -34 14 -60 6 -26 17 -76 25 -112 14 -63 14 -63 11 -15 -5 65 -27
161 -72 314 l-7 24 369 -7 c203 -4 520 -11 704 -16 184 -5 442 -10 573 -10
l237 0 0 -23 c0 -45 -31 -128 -60 -161 -32 -36 -47 -41 -177 -56 -43 -5 -150
-18 -238 -29 -491 -60 -1034 -101 -1331 -101 l-151 0 -6 43 c-5 33 -56 217
-94 340 -5 15 3 17 79 17 l85 0 19 -67z m2229 26 c154 1 464 -12 460 -19 -14
-23 -282 -88 -560 -136 -43 -7 -97 -13 -160 -18 -22 -2 -53 -8 -68 -15 -32
-12 -81 -15 -75 -3 34 66 52 116 56 156 l5 49 136 -7 c75 -4 168 -7 206 -7z
m-7625 -54 c15 -18 9 -29 -99 -164 -138 -172 -278 -361 -325 -436 -10 -16 -21
-32 -25 -35 -3 -3 -26 -29 -50 -58 -40 -48 -196 -182 -212 -182 -28 0 195 504
275 623 80 119 181 235 219 251 46 20 201 21 217 1z m10223 -4 c42 -11 89 -27
105 -35 47 -24 126 -118 170 -203 41 -79 108 -261 99 -270 -3 -2 -23 5 -46 16
-49 26 -108 45 -183 62 l-57 12 -12 51 c-28 118 -87 257 -145 339 -39 54 -37
55 69 28z m305 -133 c146 -106 220 -232 303 -513 32 -110 37 -146 12 -100 -19
38 -108 130 -150 156 -21 13 -34 31 -38 52 -24 113 -101 304 -154 382 -54 81
-53 82 27 23z m-8719 5 c16 -4 -29 -17 -140 -39 -90 -18 -182 -38 -204 -43
-22 -6 -83 -20 -135 -31 -52 -12 -160 -37 -240 -56 -80 -19 -152 -36 -160 -38
-8 -2 -58 -15 -110 -29 -52 -15 -120 -33 -150 -41 -373 -99 -1049 -323 -1182
-392 -46 -24 -43 -16 23 54 35 37 103 124 151 192 96 137 237 323 266 353 27
26 247 45 697 61 388 14 1145 20 1184 9z m238 -36 c-18 -18 -45 -48 -62 -68
-27 -31 -40 -37 -120 -53 -49 -10 -115 -24 -145 -32 -30 -7 -102 -24 -160 -38
-267 -61 -399 -93 -715 -172 -305 -75 -417 -104 -580 -148 -27 -8 -86 -24
-130 -36 -298 -80 -679 -207 -813 -270 -134 -64 -157 -81 -203 -154 -21 -34
-39 -57 -39 -53 0 23 92 179 130 218 8 9 31 24 50 34 19 10 60 34 90 54 55 37
84 50 260 121 218 87 757 264 990 324 14 4 77 20 140 37 232 61 348 90 544
135 111 25 228 51 261 59 33 7 87 19 120 25 33 6 89 18 125 25 36 8 74 16 85
18 11 3 61 5 112 6 l91 1 -31 -33z m162 16 c-7 -10 -23 -30 -35 -45 -68 -85
-184 -369 -210 -518 -3 -14 -7 -31 -9 -39 -7 -17 -40 -194 -55 -286 -55 -353
-74 -892 -45 -1305 32 -453 85 -744 191 -1040 25 -72 104 -218 140 -262 19
-22 34 -42 34 -44 0 -2 -15 -4 -34 -4 -71 0 -201 152 -284 330 -70 151 -149
415 -183 610 -29 165 -40 236 -58 383 -48 398 -48 517 0 912 18 144 27 208 58
385 17 99 70 306 107 417 71 213 161 371 265 467 50 46 66 56 96 56 32 0 34
-2 22 -17z m316 -9 c61 -8 135 -19 165 -24 30 -5 71 -12 90 -15 19 -3 55 -9
80 -14 25 -5 83 -17 130 -26 248 -49 428 -90 710 -161 80 -20 163 -40 185 -44
76 -16 74 -13 60 -88 -25 -131 -59 -463 -77 -747 -17 -271 -17 -998 0 -1270
17 -268 53 -624 77 -747 l12 -67 -31 -10 c-17 -5 -96 -26 -176 -45 -80 -19
-203 -49 -273 -66 -135 -32 -311 -71 -437 -95 -103 -21 -118 -23 -175 -35
-154 -30 -411 -67 -512 -74 l-72 -5 -39 47 c-120 145 -229 435 -278 742 -2 14
-9 52 -14 85 -45 273 -60 501 -61 901 -1 337 8 513 37 734 30 230 41 302 70
420 67 277 160 493 253 590 35 36 37 37 101 33 36 -2 115 -10 175 -19z m-582
-136 c-32 -41 -118 -222 -148 -313 -43 -128 -88 -299 -114 -430 -24 -125 -58
-342 -66 -430 -4 -33 -11 -96 -17 -140 -14 -104 -14 -507 0 -610 6 -44 14
-107 17 -140 9 -102 44 -317 75 -470 53 -255 134 -496 212 -632 29 -52 29 -53
7 -53 -12 0 -38 4 -58 10 -20 5 -67 16 -106 24 -38 8 -123 27 -187 41 -65 15
-123 25 -130 22 -7 -2 5 -8 27 -12 22 -4 94 -20 160 -35 66 -15 158 -35 205
-45 114 -23 133 -31 152 -63 9 -15 37 -50 62 -76 l45 -49 -92 6 c-61 5 -87 3
-77 -3 39 -25 -1532 1 -1760 30 -41 5 -97 9 -125 10 -68 1 -92 15 -150 91 -27
36 -77 102 -110 145 -33 43 -69 92 -79 109 -11 16 -23 34 -28 40 -4 5 -34 46
-67 90 -32 44 -86 106 -119 138 -33 31 -59 57 -56 57 2 0 23 -9 47 -19 59 -28
167 -72 197 -82 14 -4 63 -22 110 -39 159 -59 548 -185 710 -230 41 -12 89
-25 105 -29 43 -13 257 -69 348 -93 42 -11 83 -18 90 -15 6 2 -17 11 -53 19
-36 9 -119 30 -185 48 -66 18 -133 36 -150 40 -16 4 -79 22 -140 40 -60 17
-123 35 -140 40 -41 10 -166 50 -365 116 -294 98 -596 218 -667 265 -22 15
-51 30 -62 34 -34 10 -83 67 -128 147 -56 98 -65 128 -16 53 22 -33 54 -70 70
-82 121 -87 460 -206 1008 -354 68 -18 103 -24 94 -15 -2 3 -40 14 -84 26 -44
13 -93 26 -110 31 -16 4 -73 19 -125 33 -213 58 -541 167 -635 212 -33 15 -34
17 -20 37 16 23 19 89 6 152 -67 319 -76 408 -76 730 0 291 13 439 56 649 33
156 36 212 14 243 -14 20 -13 22 29 41 67 32 348 129 516 179 30 9 73 22 95
29 54 17 139 41 205 58 30 8 138 37 240 64 189 51 742 188 950 236 114 26 195
45 300 70 30 8 91 21 135 31 44 10 91 21 105 26 41 12 64 11 53 -3z m7417
-159 c12 -42 24 -108 39 -209 5 -30 14 -82 19 -115 30 -171 62 -438 82 -690
13 -168 13 -721 0 -895 -17 -217 -52 -515 -80 -680 -5 -30 -12 -73 -15 -95 -3
-22 -10 -60 -15 -85 -4 -25 -14 -73 -20 -106 -7 -34 -16 -67 -20 -75 -10 -15
-54 -12 -1055 61 -82 6 -179 13 -215 16 -104 7 -293 23 -467 41 l-163 16 0
1357 0 1357 163 16 c246 25 535 48 882 72 33 2 139 9 235 15 96 7 247 18 335
25 88 7 188 13 222 14 l62 1 11 -41z m465 26 c216 -16 458 -36 490 -41 11 -1
30 -3 42 -3 60 -2 128 -356 165 -866 17 -235 17 -917 0 -1140 -28 -367 -63
-606 -113 -773 -31 -105 -19 -97 -191 -115 -210 -22 -430 -37 -640 -44 -204
-7 -189 -15 -164 91 8 34 22 104 31 156 9 52 20 121 26 152 10 59 19 132 44
353 21 181 45 583 45 745 -1 279 -47 858 -89 1098 -6 31 -17 100 -26 152 -9
52 -23 122 -31 156 -23 100 -30 94 99 94 61 0 202 -7 312 -15z m-5665 -75
c360 -53 1066 -74 2321 -68 l927 4 1 -623 0 -623 -27 -1 c-138 -6 -295 -42
-314 -72 -15 -24 -8 -57 16 -73 32 -20 129 -43 187 -44 25 0 67 -3 92 -6 l46
-7 0 -622 0 -621 -967 4 c-970 4 -1671 -10 -2017 -39 -140 -11 -379 -43 -407
-54 -11 -5 -19 -2 -22 6 -14 51 -58 427 -78 669 -17 212 -17 1308 0 1520 16
198 40 410 58 526 8 50 14 106 14 124 0 29 2 32 23 26 12 -4 78 -15 147 -26z
m6405 -48 c50 -31 75 -57 75 -78 0 -9 6 -46 14 -83 77 -353 128 -1039 107
-1448 -22 -436 -52 -716 -107 -979 -14 -65 -19 -73 -57 -101 -39 -27 -148 -83
-162 -83 -3 0 -2 8 4 17 44 85 124 635 130 903 1 36 6 130 11 210 12 186 12
375 1 570 -6 85 -12 205 -15 265 -16 293 -76 724 -117 832 -5 13 -9 26 -9 29
0 7 84 -29 125 -54z m176 -137 c49 -47 60 -64 83 -137 37 -120 72 -317 90
-518 3 -30 11 -107 17 -170 15 -142 15 -660 1 -795 -6 -55 -14 -131 -17 -170
-17 -217 -73 -502 -116 -586 -17 -35 -103 -119 -120 -119 -12 0 -11 11 5 83
28 121 50 285 82 612 24 239 24 860 1 1105 -32 330 -56 514 -83 644 -16 77
-18 106 -6 106 4 0 33 -25 63 -55z m-11443 -357 c16 -16 15 -59 -4 -143 -53
-240 -76 -456 -76 -725 0 -273 21 -475 77 -729 19 -87 17 -130 -7 -145 -24
-14 -107 44 -145 103 -35 53 -100 212 -108 262 -3 19 7 -2 23 -46 46 -127 76
-188 112 -222 42 -41 68 -50 88 -29 14 14 15 23 3 73 -7 32 -18 93 -24 136 -6
42 -14 77 -18 77 -8 0 -5 -27 17 -144 19 -104 18 -146 -1 -146 -27 0 -99 83
-119 135 -10 28 -27 73 -38 100 -10 28 -32 111 -48 185 -15 74 -28 122 -29
105 0 -16 6 -57 14 -90 8 -33 14 -69 14 -80 -1 -33 -17 29 -41 155 -27 144
-29 463 -4 570 l15 65 -4 -60 c-3 -33 -10 -107 -16 -165 -9 -97 2 -345 17
-359 3 -3 2 64 -2 149 -12 306 36 594 134 790 25 51 48 82 71 98 19 12 38 22
42 22 13 0 11 -59 -6 -147 -8 -43 -18 -105 -21 -138 -3 -33 -9 -96 -15 -140
-5 -44 -8 -113 -8 -155 1 -55 6 -23 19 120 19 218 24 255 47 353 12 52 13 74
4 93 -15 33 -34 30 -82 -13 -48 -43 -71 -85 -116 -213 -19 -52 -31 -80 -28
-61 8 50 73 209 107 261 28 43 109 110 133 110 6 0 16 -5 23 -12z m8112 -869
l0 -72 -107 6 c-238 11 -300 77 -111 118 46 9 113 18 151 18 l67 1 0 -71z
m-8381 -659 c36 -100 98 -214 157 -286 30 -36 54 -76 54 -88 0 -30 45 -152
114 -311 106 -243 146 -314 252 -450 119 -153 161 -179 294 -179 88 -1 138 17
146 50 6 21 12 24 63 26 l56 2 -52 3 c-43 3 -54 8 -68 31 -10 15 -29 40 -44
55 l-26 28 85 -6 c47 -4 130 -11 185 -16 215 -20 912 -31 1515 -25 338 4 635
9 660 12 43 5 46 3 82 -39 l37 -44 -92 -15 c-74 -13 -83 -16 -47 -17 25 -1 70
5 99 13 51 13 56 13 101 -10 27 -13 62 -27 79 -30 17 -4 31 -9 31 -13 0 -3
-18 -15 -40 -25 -44 -21 -114 -82 -122 -105 -4 -13 -42 -13 -279 -3 -151 7
-321 12 -379 11 -101 -2 -99 -2 55 -11 88 -4 255 -11 371 -16 l212 -7 -47 -82
c-25 -45 -49 -84 -52 -88 -4 -3 -130 -6 -280 -7 -151 0 -366 -7 -479 -15 -173
-12 -271 -13 -625 -3 -541 16 -557 17 -702 35 -219 28 -351 89 -519 236 -34
30 -97 82 -140 116 -118 92 -217 190 -263 261 -22 35 -41 65 -41 68 0 2 -13
25 -29 51 -79 130 -218 401 -268 523 -72 175 -96 270 -113 445 -5 55 -12 123
-15 150 -4 36 3 21 23 -55 16 -58 39 -134 51 -170z m346 -443 c44 -35 100 -88
125 -118 25 -30 51 -60 58 -67 6 -8 17 -23 24 -35 15 -29 224 -309 318 -427
107 -133 115 -147 100 -165 -16 -20 -167 -21 -213 -1 -41 17 -142 132 -222
251 -84 126 -305 625 -277 625 4 0 43 -28 87 -63z m11455 -168 c-37 -128 -86
-248 -135 -328 -38 -63 -150 -176 -209 -211 l-39 -23 37 53 c63 91 123 233
170 401 11 39 22 59 39 66 38 18 134 111 148 145 26 63 20 7 -11 -103z m-255
-215 c-45 -135 -104 -248 -168 -320 -57 -64 -83 -79 -180 -104 -109 -29 -111
-28 -70 33 19 28 45 72 58 97 28 55 80 202 89 251 6 34 9 36 63 49 31 7 64 16
73 20 8 5 44 23 80 40 36 18 69 36 74 41 19 17 16 0 -19 -107z m-3145 86 c41
-6 102 -12 135 -15 33 -2 112 -9 175 -15 295 -25 842 -67 1070 -80 102 -6 281
-18 398 -27 227 -16 252 -15 959 33 l103 7 -16 -49 c-8 -27 -24 -74 -35 -105
l-20 -56 -102 -32 c-154 -48 -151 -47 -316 -87 -84 -21 -148 -40 -141 -42 6
-2 33 1 58 8 149 37 397 105 451 124 23 7 41 11 41 9 0 -3 -14 -32 -32 -65
-36 -69 -99 -143 -137 -162 -39 -21 -502 -133 -616 -150 -55 -8 -145 -19 -200
-26 -55 -6 -154 -17 -220 -25 -313 -37 -524 -60 -640 -70 -33 -2 -107 -9 -165
-15 -185 -18 -373 -30 -459 -30 l-84 0 36 35 c19 19 41 50 48 69 10 28 19 36
43 39 17 2 -560 5 -1282 5 -1046 2 -1313 5 -1310 15 4 9 107 13 449 18 512 7
1441 25 2034 39 226 6 469 10 541 10 116 0 135 2 155 19 27 22 21 41 -22 73
-56 42 -326 118 -589 167 -30 6 -89 17 -130 25 -147 29 -326 58 -500 81 -63 9
-162 22 -220 30 -104 14 -238 30 -335 40 -27 3 -93 9 -145 15 -460 47 -792 65
-1200 65 -419 0 -693 -19 -1045 -71 -244 -36 -570 -111 -870 -199 -88 -26
-212 -60 -275 -76 -63 -16 -151 -41 -194 -55 -72 -23 -84 -24 -125 -13 -66 17
-166 75 -191 109 l-20 29 47 6 c104 12 201 27 273 41 140 27 275 54 345 69 39
8 84 18 100 21 17 3 57 12 90 19 33 8 89 21 125 29 79 18 256 62 445 110 237
59 391 80 695 91 74 3 151 8 170 12 116 20 2491 23 2650 3z m-1540 -169 c152
-13 379 -32 440 -37 96 -7 359 -36 575 -65 44 -5 96 -12 115 -14 114 -14 326
-48 590 -95 326 -58 637 -139 707 -185 13 -9 23 -22 23 -29 0 -11 -30 -15
-132 -20 -169 -7 -469 -15 -858 -21 -168 -3 -548 -10 -845 -15 -766 -14 -1135
-17 -1135 -9 0 23 27 24 755 39 920 17 1145 19 1145 6 0 -8 3 -7 8 1 6 9 97
14 337 18 429 7 515 13 515 31 0 27 -79 63 -210 95 -80 20 -348 71 -460 88
-36 6 -108 17 -160 25 -167 26 -402 59 -505 70 -22 3 -80 10 -130 15 -239 28
-593 59 -755 66 -63 3 -185 10 -270 15 -202 13 -702 13 -866 0 -71 -5 -163
-12 -204 -15 -164 -12 -407 -39 -575 -65 -33 -5 -78 -12 -100 -15 -56 -8 -139
-24 -212 -41 -71 -16 -89 -17 -53 -3 40 16 338 78 525 108 83 14 301 39 480
56 180 16 1057 14 1255 -4z m-770 -41 c0 -5 -21 -53 -46 -107 -26 -54 -68
-143 -94 -199 l-47 -101 -244 -7 c-314 -8 -1581 -28 -1584 -24 -1 2 9 38 23
80 l25 77 116 36 c172 52 208 62 291 79 41 9 118 25 170 36 100 22 128 26 360
59 221 30 397 49 595 61 99 6 189 12 200 13 68 6 235 4 235 -3z m150 3 c0 -38
-53 -235 -95 -354 l-16 -47 -100 -7 c-55 -4 -102 -5 -105 -3 -2 3 13 43 35 89
21 46 49 107 61 134 13 28 38 83 57 123 l33 72 65 0 c36 0 65 -3 65 -7z m194
-4 c2 -2 -7 -58 -20 -124 -29 -139 -25 -122 -48 -207 l-19 -68 -83 0 c-46 0
-84 3 -84 8 0 4 14 50 31 102 35 108 69 242 69 270 0 10 6 20 13 23 15 5 135
2 141 -4z m331 -9 c218 -14 531 -39 640 -50 50 -6 115 -13 145 -15 128 -12
320 -36 525 -66 84 -12 126 -45 145 -115 7 -24 16 -44 21 -44 12 0 -26 98 -48
123 -18 20 -18 20 29 15 39 -5 67 -20 173 -97 70 -51 129 -90 132 -87 2 2 -41
36 -96 76 -56 40 -103 76 -107 81 -3 5 8 9 25 9 16 0 33 -5 36 -11 4 -6 13 -8
21 -5 8 3 36 1 62 -4 26 -5 85 -16 132 -24 253 -46 401 -83 458 -115 13 -7
-201 -21 -336 -21 -63 0 -65 1 -184 81 -66 44 -122 79 -124 77 -2 -3 36 -31
84 -64 48 -32 98 -67 112 -77 l24 -18 -54 1 c-30 0 -117 -2 -192 -6 l-138 -7
-2 34 -1 34 -4 -32 -4 -33 -217 0 c-119 0 -374 -4 -567 -10 -192 -5 -518 -12
-724 -16 -364 -7 -374 -6 -368 12 25 85 47 173 62 249 9 50 19 100 21 113 4
21 9 22 82 22 42 0 149 -5 237 -10z m-2698 -302 c-2 -7 -17 -55 -33 -105 l-29
-93 -75 0 -75 0 -20 37 c-11 20 -31 50 -43 65 -18 21 -20 29 -10 32 71 25 233
67 282 75 4 0 6 -5 3 -11z m-339 -109 c26 -9 72 -61 72 -82 0 -4 -48 -8 -107
-10 l-108 -3 112 -2 111 -2 46 -91 46 -91 -208 6 c-114 3 -214 6 -223 6 -13 0
-8 17 25 79 41 80 95 138 166 179 19 11 35 21 36 21 1 1 15 -4 32 -10z m2162
-18 c0 -5 -6 -14 -13 -20 -19 -15 -1807 -29 -1807 -14 0 7 150 13 458 17 251
4 610 10 797 15 501 12 565 12 565 2z m210 -61 c0 -7 -346 -9 -1022 -8 l-1023
3 685 5 c377 3 837 6 1023 8 219 1 337 -1 337 -8z m-2075 -52 c4 -18 15 -53
25 -78 10 -25 33 -83 52 -130 18 -47 49 -119 69 -160 20 -41 35 -77 34 -78
-18 -20 -104 61 -169 158 -46 68 -176 299 -176 313 0 4 36 7 79 7 l79 0 7 -32z
m2063 17 c4 -4 -10 -52 -41 -134 l-19 -54 -727 7 c-399 3 -807 9 -906 12
l-181 6 -29 82 -30 81 -45 7 c-25 3 410 4 965 1 556 -3 1012 -7 1013 -8z
m2562 -3 c0 -22 -69 -90 -127 -126 -49 -30 -54 -31 -47 -11 5 13 -10 15 -99
15 -79 0 -107 -4 -117 -14 -6 -8 -24 -17 -38 -19 -25 -4 -25 -4 4 -6 18 0 37
6 44 14 9 11 35 15 101 15 49 0 89 -4 89 -8 0 -20 -28 -32 -74 -34 -37 -1 -42
-2 -18 -5 39 -5 42 -20 6 -29 -32 -8 -235 3 -284 15 l-35 9 30 2 c24 2 -100
25 -152 29 -7 1 -13 6 -13 11 0 13 73 13 86 0 6 -6 35 -12 65 -15 46 -4 48 -3
14 3 -22 5 -50 13 -62 20 -24 13 -123 17 -123 5 1 -20 19 -32 60 -41 31 -7
-251 -10 -919 -11 -767 -1 -962 2 -959 12 3 6 17 49 32 94 l27 82 122 4 c67 1
632 4 1255 5 1082 2 1132 1 1132 -16z m1575 -2 c-3 -5 -20 -14 -38 -19 -18 -5
-84 -28 -147 -51 -230 -82 -421 -128 -630 -151 -126 -14 -870 -16 -928 -2
l-33 8 63 32 c62 32 66 33 268 43 185 9 305 19 630 51 177 17 211 21 505 55
115 13 301 39 313 43 2 1 1 -3 -3 -9z m-6063 -140 c22 -58 53 -138 69 -179 29
-72 38 -128 20 -116 -12 7 -57 102 -101 210 -17 44 -41 102 -52 129 -16 40
-17 50 -6 57 7 5 17 7 22 6 5 -2 27 -50 48 -107z"/>
<path d="M2410 4947 c-113 -5 -198 -12 -190 -15 8 -3 186 1 395 8 343 12 766
10 1115 -4 93 -4 98 -3 45 5 -85 14 -1120 19 -1365 6z"/>
<path d="M5880 4051 c-19 -10 -44 -34 -55 -52 -20 -33 -20 -55 -23 -974 -2
-676 0 -952 9 -981 13 -49 49 -91 87 -101 15 -5 228 -8 474 -8 438 0 447 0
475 21 15 11 34 32 40 45 10 19 13 246 13 1005 0 980 0 981 -21 1008 -44 56
-40 56 -521 56 -413 0 -446 -1 -478 -19z m912 -31 c73 -21 68 53 68 -1018 0
-671 -3 -969 -11 -984 -6 -11 -27 -27 -47 -35 -32 -13 -93 -14 -466 -8 l-430
8 -28 28 -28 27 -1 939 c-1 516 -1 945 0 953 4 30 23 69 39 77 38 18 843 30
904 13z"/>
<path d="M527 3092 c-30 -33 -42 -106 -29 -168 24 -114 86 -127 121 -25 39
117 -30 262 -92 193z m60 -14 c42 -45 38 -178 -7 -222 l-21 -21 -25 28 c-21
25 -24 38 -24 106 0 64 4 83 21 105 25 32 30 32 56 4z"/>
</g>
</svg>
